G04 ================== begin FILE IDENTIFICATION RECORD ==================*
G04 Layout Name:  LAYOUT.brd*
G04 Film Name:    BOTTOM*
G04 File Format:  Gerber RS274X*
G04 File Origin:  Cadence Allegro 16.6-2015-S059*
G04 Origin Date:  Sun Dec 14 23:50:57 2025*
G04 *
G04 Layer:  ETCH/BOTTOM*
G04 Layer:  PIN/BOTTOM*
G04 Layer:  VIA CLASS/BOTTOM*
G04 *
G04 Offset:    (0.0000 0.0000)*
G04 Mirror:    No*
G04 Mode:      Positive*
G04 Rotation:  0*
G04 FullContactRelief:  No*
G04 UndefLineWidth:     0.1000*
G04 ================== end FILE IDENTIFICATION RECORD ====================*
%FSLAX25Y25*MOIN*%
%IR0*IPPOS*OFA0.00000B0.00000*MIA0B0*SFA1.00000B1.00000*%
%ADD10C,.031496*%
%ADD11C,.015748*%
%ADD12C,.017717*%
G75*
%LPD*%
G75*
G54D10*
X30945Y87126D03*
X44173Y47362D03*
X57795D03*
X51438Y68898D03*
X58346Y134961D03*
X59567Y115079D03*
X65433Y136142D03*
X86535Y40472D03*
X73819Y109606D03*
X84134Y84921D03*
X119646Y49370D03*
Y75630D03*
X117579Y89272D03*
X100630Y90984D03*
X116260Y126535D03*
X139409Y63780D03*
X131181Y73031D03*
X141929Y78937D03*
G54D11*
G01X30945Y87126D02*
X32969Y85102D01*
X35233D01*
X51438Y68898D01*
G01X44173Y47362D02*
X57795D01*
G01X58346Y134961D02*
Y119161D01*
X59567Y117941D01*
Y115079D01*
G01X65433Y136142D02*
X70898D01*
X73819Y133220D01*
Y109606D01*
G01X100630Y90984D02*
X113004D01*
X114717Y89272D01*
X117579D01*
G01X131181Y73031D02*
X133205Y71007D01*
Y69984D01*
X139409Y63780D01*
G54D12*
G01X116260Y126535D02*
X112650D01*
X76142Y90027D01*
Y83346D01*
X86535Y72953D01*
Y40472D01*
G01X141929Y78937D02*
X122087D01*
X116102Y84921D01*
X84134D01*
G01X119646Y75630D02*
Y49370D01*
M02*
