G04 ================== begin FILE IDENTIFICATION RECORD ==================*
G04 Layout Name:  LAYOUT.brd*
G04 Film Name:    FAB*
G04 File Format:  Gerber RS274X*
G04 File Origin:  Cadence Allegro 16.6-2015-S059*
G04 Origin Date:  Sun Dec 14 23:50:57 2025*
G04 *
G04 Layer:  MANUFACTURING/NCDRILL_LEGEND*
G04 Layer:  MANUFACTURING/NCDRILL_FIGURE*
G04 Layer:  MANUFACTURING/XSECTION_CHART*
G04 Layer:  MANUFACTURING/NCLEGEND-1-2*
G04 Layer:  DRAWING FORMAT/OUTLINE*
G04 *
G04 Offset:    (0.0000 0.0000)*
G04 Mirror:    No*
G04 Mode:      Positive*
G04 Rotation:  0*
G04 FullContactRelief:  No*
G04 UndefLineWidth:     0.1000*
G04 ================== end FILE IDENTIFICATION RECORD ====================*
%FSLAX25Y25*MOIN*%
%IR0*IPPOS*OFA0.00000B0.00000*MIA0B0*SFA1.00000B1.00000*%
%AMMACRO10*
1,1,.003937,.025,0.0*
20,1,.003937,.025,0.0,.02462,-.004341,0.0*
1,1,.003937,.02462,-.004341*
20,1,.003937,.02462,-.004341,.023492,-.008551,0.0*
1,1,.003937,.023492,-.008551*
20,1,.003937,.023492,-.008551,.021651,-.0125,0.0*
1,1,.003937,.021651,-.0125*
20,1,.003937,.021651,-.0125,.019151,-.01607,0.0*
1,1,.003937,.019151,-.01607*
20,1,.003937,.019151,-.01607,.01607,-.019151,0.0*
1,1,.003937,.01607,-.019151*
20,1,.003937,.01607,-.019151,.0125,-.021651,0.0*
1,1,.003937,.0125,-.021651*
20,1,.003937,.0125,-.021651,.008551,-.023492,0.0*
1,1,.003937,.008551,-.023492*
20,1,.003937,.008551,-.023492,.004341,-.02462,0.0*
1,1,.003937,.004341,-.02462*
20,1,.003937,.004341,-.02462,0.0,-.025,0.0*
1,1,.003937,0.0,-.025*
20,1,.003937,0.0,-.025,-.004341,-.02462,0.0*
1,1,.003937,-.004341,-.02462*
20,1,.003937,-.004341,-.02462,-.008551,-.023492,0.0*
1,1,.003937,-.008551,-.023492*
20,1,.003937,-.008551,-.023492,-.0125,-.021651,0.0*
1,1,.003937,-.0125,-.021651*
20,1,.003937,-.0125,-.021651,-.01607,-.019151,0.0*
1,1,.003937,-.01607,-.019151*
20,1,.003937,-.01607,-.019151,-.019151,-.01607,0.0*
1,1,.003937,-.019151,-.01607*
20,1,.003937,-.019151,-.01607,-.021651,-.0125,0.0*
1,1,.003937,-.021651,-.0125*
20,1,.003937,-.021651,-.0125,-.023492,-.008551,0.0*
1,1,.003937,-.023492,-.008551*
20,1,.003937,-.023492,-.008551,-.02462,-.004341,0.0*
1,1,.003937,-.02462,-.004341*
20,1,.003937,-.02462,-.004341,-.025,0.0,0.0*
1,1,.003937,-.025,0.0*
20,1,.003937,-.025,0.0,-.02462,.004341,0.0*
1,1,.003937,-.02462,.004341*
20,1,.003937,-.02462,.004341,-.023492,.008551,0.0*
1,1,.003937,-.023492,.008551*
20,1,.003937,-.023492,.008551,-.021651,.0125,0.0*
1,1,.003937,-.021651,.0125*
20,1,.003937,-.021651,.0125,-.019151,.01607,0.0*
1,1,.003937,-.019151,.01607*
20,1,.003937,-.019151,.01607,-.01607,.019151,0.0*
1,1,.003937,-.01607,.019151*
20,1,.003937,-.01607,.019151,-.0125,.021651,0.0*
1,1,.003937,-.0125,.021651*
20,1,.003937,-.0125,.021651,-.008551,.023492,0.0*
1,1,.003937,-.008551,.023492*
20,1,.003937,-.008551,.023492,-.004341,.02462,0.0*
1,1,.003937,-.004341,.02462*
20,1,.003937,-.004341,.02462,0.0,.025,0.0*
1,1,.003937,0.0,.025*
20,1,.003937,0.0,.025,.004341,.02462,0.0*
1,1,.003937,.004341,.02462*
20,1,.003937,.004341,.02462,.008551,.023492,0.0*
1,1,.003937,.008551,.023492*
20,1,.003937,.008551,.023492,.0125,.021651,0.0*
1,1,.003937,.0125,.021651*
20,1,.003937,.0125,.021651,.01607,.019151,0.0*
1,1,.003937,.01607,.019151*
20,1,.003937,.01607,.019151,.019151,.01607,0.0*
1,1,.003937,.019151,.01607*
20,1,.003937,.019151,.01607,.021651,.0125,0.0*
1,1,.003937,.021651,.0125*
20,1,.003937,.021651,.0125,.023492,.008551,0.0*
1,1,.003937,.023492,.008551*
20,1,.003937,.023492,.008551,.02462,.004341,0.0*
1,1,.003937,.02462,.004341*
20,1,.003937,.02462,.004341,.025,0.0,0.0*
1,1,.003937,.025,0.0*
1,1,.003937,.0125,0.0*
20,1,.003937,.0125,0.0,-.0125,0.0,0.0*
1,1,.003937,-.0125,0.0*
1,1,.003937,0.0,.0125*
20,1,.003937,0.0,.0125,0.0,-.0125,0.0*
1,1,.003937,0.0,-.0125*
%
%ADD10MACRO10*%
%ADD11C,.003937*%
G75*
%LPD*%
G75*
G36*
G01X-179882Y221537D02*
Y219269D01*
X-177382D01*
Y22230D01*
X-179882D01*
Y19962D01*
X-164882D01*
Y22230D01*
X-167382D01*
Y219269D01*
X-164882D01*
Y221537D01*
X-179882D01*
G37*
G36*
G01X-199882Y19962D02*
Y22230D01*
X-139882D01*
Y19962D01*
X-199882D01*
G37*
G36*
G01Y219269D02*
Y221537D01*
X-139882D01*
Y219269D01*
X-199882D01*
G37*
G54D10*
X30945Y87126D03*
X42470Y-112146D03*
X44173Y47362D03*
X57795D03*
X51438Y68898D03*
X58346Y134961D03*
X59567Y115079D03*
X65433Y136142D03*
X86535Y40472D03*
X73819Y109606D03*
X84134Y84921D03*
X119646Y49370D03*
Y75630D03*
X117579Y89272D03*
X100630Y90984D03*
X116260Y126535D03*
X139409Y63780D03*
X131181Y73031D03*
X141929Y78937D03*
G54D11*
G01X-197969Y9534D02*
Y12034D01*
X-197435D01*
X-197222Y11909D01*
X-197062Y11742D01*
X-196928Y11492D01*
X-196822Y11200D01*
X-196795Y10784D01*
X-196822Y10367D01*
X-196928Y10076D01*
X-197062Y9826D01*
X-197222Y9659D01*
X-197435Y9534D01*
X-197969D01*
G01X-194648D02*
X-195715D01*
Y12034D01*
X-194648D01*
G01X-195075Y10826D02*
X-195715D01*
G01X-193542Y9867D02*
X-193329Y9659D01*
X-193089Y9534D01*
X-192875D01*
X-192662Y9659D01*
X-192502Y9867D01*
X-192422Y10159D01*
X-192475Y10450D01*
X-192609Y10700D01*
X-192848Y10867D01*
X-193169Y10950D01*
X-193355Y11117D01*
X-193435Y11409D01*
X-193382Y11700D01*
X-193248Y11909D01*
X-193062Y12034D01*
X-192875D01*
X-192689Y11950D01*
X-192528Y11742D01*
G01X-191102Y12034D02*
X-190462D01*
G01X-190782D02*
Y9534D01*
G01X-191102D02*
X-190462D01*
G01X-188422Y10784D02*
X-187889D01*
Y10034D01*
X-188048Y9784D01*
X-188235Y9617D01*
X-188502Y9534D01*
X-188769Y9617D01*
X-188955Y9784D01*
X-189115Y10034D01*
X-189222Y10326D01*
X-189275Y10659D01*
Y10950D01*
X-189222Y11200D01*
X-189115Y11492D01*
X-188955Y11742D01*
X-188795Y11909D01*
X-188582Y12034D01*
X-188395D01*
X-188182Y11950D01*
X-188022Y11784D01*
G01X-186995Y9534D02*
Y12034D01*
X-185769Y9534D01*
Y12034D01*
G01X-181395Y11826D02*
X-181555Y11950D01*
X-181742Y12034D01*
X-181955D01*
X-182195Y11909D01*
X-182382Y11700D01*
X-182515Y11450D01*
X-182622Y11034D01*
X-182648Y10659D01*
X-182595Y10284D01*
X-182515Y10034D01*
X-182355Y9784D01*
X-182169Y9617D01*
X-181982Y9534D01*
X-181795D01*
X-181609Y9617D01*
X-181448Y9742D01*
X-181315Y9909D01*
G01X-180315Y9534D02*
Y12034D01*
X-179648D01*
X-179435Y11909D01*
X-179302Y11742D01*
X-179248Y11409D01*
X-179302Y11076D01*
X-179462Y10867D01*
X-179648Y10742D01*
X-180315D01*
G01X-179648D02*
X-179248Y9534D01*
G01X-177582D02*
X-177795Y9576D01*
X-177982Y9742D01*
X-178142Y9992D01*
X-178248Y10284D01*
X-178302Y10617D01*
Y10950D01*
X-178248Y11284D01*
X-178142Y11576D01*
X-177982Y11826D01*
X-177795Y11992D01*
X-177582Y12034D01*
X-177369Y11992D01*
X-177182Y11826D01*
X-177022Y11576D01*
X-176915Y11284D01*
X-176862Y10950D01*
Y10617D01*
X-176915Y10284D01*
X-177022Y9992D01*
X-177182Y9742D01*
X-177369Y9576D01*
X-177582Y9534D01*
G01X-175942Y9867D02*
X-175729Y9659D01*
X-175489Y9534D01*
X-175275D01*
X-175062Y9659D01*
X-174902Y9867D01*
X-174822Y10159D01*
X-174875Y10450D01*
X-175009Y10700D01*
X-175248Y10867D01*
X-175569Y10950D01*
X-175755Y11117D01*
X-175835Y11409D01*
X-175782Y11700D01*
X-175648Y11909D01*
X-175462Y12034D01*
X-175275D01*
X-175089Y11950D01*
X-174928Y11742D01*
G01X-173742Y9867D02*
X-173529Y9659D01*
X-173289Y9534D01*
X-173075D01*
X-172862Y9659D01*
X-172702Y9867D01*
X-172622Y10159D01*
X-172675Y10450D01*
X-172809Y10700D01*
X-173048Y10867D01*
X-173369Y10950D01*
X-173555Y11117D01*
X-173635Y11409D01*
X-173582Y11700D01*
X-173448Y11909D01*
X-173262Y12034D01*
X-173075D01*
X-172889Y11950D01*
X-172728Y11742D01*
G01X-169342Y9867D02*
X-169129Y9659D01*
X-168889Y9534D01*
X-168675D01*
X-168462Y9659D01*
X-168302Y9867D01*
X-168222Y10159D01*
X-168275Y10450D01*
X-168409Y10700D01*
X-168648Y10867D01*
X-168969Y10950D01*
X-169155Y11117D01*
X-169235Y11409D01*
X-169182Y11700D01*
X-169048Y11909D01*
X-168862Y12034D01*
X-168675D01*
X-168489Y11950D01*
X-168328Y11742D01*
G01X-166048Y9534D02*
X-167115D01*
Y12034D01*
X-166048D01*
G01X-166475Y10826D02*
X-167115D01*
G01X-163795Y11826D02*
X-163955Y11950D01*
X-164142Y12034D01*
X-164355D01*
X-164595Y11909D01*
X-164782Y11700D01*
X-164915Y11450D01*
X-165022Y11034D01*
X-165048Y10659D01*
X-164995Y10284D01*
X-164915Y10034D01*
X-164755Y9784D01*
X-164569Y9617D01*
X-164382Y9534D01*
X-164195D01*
X-164009Y9617D01*
X-163848Y9742D01*
X-163715Y9909D01*
G01X-162182Y12034D02*
Y9534D01*
G01X-162795Y12034D02*
X-161569D01*
G01X-160302D02*
X-159662D01*
G01X-159982D02*
Y9534D01*
G01X-160302D02*
X-159662D01*
G01X-157782D02*
X-157995Y9576D01*
X-158182Y9742D01*
X-158342Y9992D01*
X-158448Y10284D01*
X-158502Y10617D01*
Y10950D01*
X-158448Y11284D01*
X-158342Y11576D01*
X-158182Y11826D01*
X-157995Y11992D01*
X-157782Y12034D01*
X-157569Y11992D01*
X-157382Y11826D01*
X-157222Y11576D01*
X-157115Y11284D01*
X-157062Y10950D01*
Y10617D01*
X-157115Y10284D01*
X-157222Y9992D01*
X-157382Y9742D01*
X-157569Y9576D01*
X-157782Y9534D01*
G01X-156195D02*
Y12034D01*
X-154969Y9534D01*
Y12034D01*
G01X-150595Y11826D02*
X-150755Y11950D01*
X-150942Y12034D01*
X-151155D01*
X-151395Y11909D01*
X-151582Y11700D01*
X-151715Y11450D01*
X-151822Y11034D01*
X-151848Y10659D01*
X-151795Y10284D01*
X-151715Y10034D01*
X-151555Y9784D01*
X-151369Y9617D01*
X-151182Y9534D01*
X-150995D01*
X-150809Y9617D01*
X-150648Y9742D01*
X-150515Y9909D01*
G01X-149542Y9534D02*
Y12034D01*
G01X-148422D02*
Y9534D01*
G01Y10784D02*
X-149542D01*
G01X-147448Y9534D02*
X-146782Y12034D01*
X-146115Y9534D01*
G01X-146355Y10409D02*
X-147209D01*
G01X-145115Y9534D02*
Y12034D01*
X-144448D01*
X-144235Y11909D01*
X-144102Y11742D01*
X-144048Y11409D01*
X-144102Y11076D01*
X-144262Y10867D01*
X-144448Y10742D01*
X-145115D01*
G01X-144448D02*
X-144048Y9534D01*
G01X-142382Y12034D02*
Y9534D01*
G01X-142995Y12034D02*
X-141769D01*
G01X-199282Y8700D02*
X-197682D01*
G01X-197082D02*
X-195482D01*
G01X-194882D02*
X-193282D01*
G01X-192682D02*
X-191082D01*
G01X-190482D02*
X-188882D01*
G01X-188282D02*
X-186682D01*
G01X-186082D02*
X-184482D01*
G01X-183882D02*
X-182282D01*
G01X-181682D02*
X-180082D01*
G01X-179482D02*
X-177882D01*
G01X-177282D02*
X-175682D01*
G01X-175082D02*
X-173482D01*
G01X-172882D02*
X-171282D01*
G01X-170682D02*
X-169082D01*
G01X-168482D02*
X-166882D01*
G01X-166282D02*
X-164682D01*
G01X-164082D02*
X-162482D01*
G01X-161882D02*
X-160282D01*
G01X-159682D02*
X-158082D01*
G01X-157482D02*
X-155882D01*
G01X-155282D02*
X-153682D01*
G01X-153082D02*
X-151482D01*
G01X-150882D02*
X-149282D01*
G01X-148682D02*
X-147082D01*
G01X-146482D02*
X-144882D01*
G01X-144282D02*
X-142682D01*
G01X-142082D02*
X-140482D01*
G01X-192982Y7034D02*
Y4534D01*
G01X-193595Y7034D02*
X-192369D01*
G01X-190782Y4534D02*
X-190995Y4576D01*
X-191182Y4742D01*
X-191342Y4992D01*
X-191448Y5284D01*
X-191502Y5617D01*
Y5950D01*
X-191448Y6284D01*
X-191342Y6576D01*
X-191182Y6826D01*
X-190995Y6992D01*
X-190782Y7034D01*
X-190569Y6992D01*
X-190382Y6826D01*
X-190222Y6576D01*
X-190115Y6284D01*
X-190062Y5950D01*
Y5617D01*
X-190115Y5284D01*
X-190222Y4992D01*
X-190382Y4742D01*
X-190569Y4576D01*
X-190782Y4534D01*
G01X-188582Y7034D02*
Y4534D01*
G01X-189195Y7034D02*
X-187969D01*
G01X-187048Y4534D02*
X-186382Y7034D01*
X-185715Y4534D01*
G01X-185955Y5409D02*
X-186809D01*
G01X-184715Y7034D02*
Y4534D01*
X-183648D01*
G01X-179782Y7034D02*
Y4534D01*
G01X-180395Y7034D02*
X-179169D01*
G01X-178142Y4534D02*
Y7034D01*
G01X-177022D02*
Y4534D01*
G01Y5784D02*
X-178142D01*
G01X-175702Y7034D02*
X-175062D01*
G01X-175382D02*
Y4534D01*
G01X-175702D02*
X-175062D01*
G01X-172595Y6826D02*
X-172755Y6950D01*
X-172942Y7034D01*
X-173155D01*
X-173395Y6909D01*
X-173582Y6700D01*
X-173715Y6450D01*
X-173822Y6034D01*
X-173848Y5659D01*
X-173795Y5284D01*
X-173715Y5034D01*
X-173555Y4784D01*
X-173369Y4617D01*
X-173182Y4534D01*
X-172995D01*
X-172809Y4617D01*
X-172648Y4742D01*
X-172515Y4909D01*
G01X-171569Y4534D02*
Y7034D01*
G01X-170555D02*
X-171569Y5492D01*
G01X-170395Y4534D02*
X-171115Y6200D01*
G01X-169395Y4534D02*
Y7034D01*
X-168169Y4534D01*
Y7034D01*
G01X-166048Y4534D02*
X-167115D01*
Y7034D01*
X-166048D01*
G01X-166475Y5826D02*
X-167115D01*
G01X-164942Y4867D02*
X-164729Y4659D01*
X-164489Y4534D01*
X-164275D01*
X-164062Y4659D01*
X-163902Y4867D01*
X-163822Y5159D01*
X-163875Y5450D01*
X-164009Y5700D01*
X-164248Y5867D01*
X-164569Y5950D01*
X-164755Y6117D01*
X-164835Y6409D01*
X-164782Y6700D01*
X-164648Y6909D01*
X-164462Y7034D01*
X-164275D01*
X-164089Y6950D01*
X-163928Y6742D01*
G01X-162742Y4867D02*
X-162529Y4659D01*
X-162289Y4534D01*
X-162075D01*
X-161862Y4659D01*
X-161702Y4867D01*
X-161622Y5159D01*
X-161675Y5450D01*
X-161809Y5700D01*
X-162048Y5867D01*
X-162369Y5950D01*
X-162555Y6117D01*
X-162635Y6409D01*
X-162582Y6700D01*
X-162448Y6909D01*
X-162262Y7034D01*
X-162075D01*
X-161889Y6950D01*
X-161728Y6742D01*
G01X-157782Y4534D02*
Y7034D01*
X-158102Y6534D01*
G01Y4534D02*
X-157462D01*
G01X-155582Y4450D02*
X-155635Y4492D01*
Y4576D01*
X-155582Y4617D01*
X-155529Y4576D01*
Y4492D01*
X-155582Y4450D01*
G01X-153889Y5576D02*
X-153702Y5867D01*
X-153542Y6034D01*
X-153329Y6117D01*
X-153142Y6034D01*
X-153009Y5867D01*
X-152902Y5617D01*
X-152875Y5326D01*
X-152902Y5076D01*
X-153009Y4826D01*
X-153169Y4617D01*
X-153355Y4534D01*
X-153569Y4617D01*
X-153755Y4867D01*
X-153862Y5242D01*
X-153889Y5659D01*
X-153835Y6200D01*
X-153755Y6492D01*
X-153622Y6784D01*
X-153435Y6992D01*
X-153248Y7034D01*
X-153062Y6950D01*
X-152928Y6742D01*
G01X-149675Y4534D02*
Y7034D01*
X-148982Y4950D01*
X-148289Y7034D01*
Y4534D01*
G01X-147475D02*
Y7034D01*
X-146782Y4950D01*
X-146089Y7034D01*
Y4534D01*
G01X-172382Y224837D02*
X-174882D01*
X-174382Y224517D01*
G01X-172382D02*
Y225157D01*
G01X-173215Y226690D02*
Y227384D01*
G01X-174465Y228730D02*
X-174715Y228890D01*
X-174840Y229077D01*
X-174882Y229290D01*
X-174798Y229557D01*
X-174590Y229744D01*
X-174340Y229797D01*
X-174090Y229770D01*
X-173882Y229664D01*
X-173465Y229130D01*
X-173174Y228890D01*
X-172757Y228730D01*
X-172382Y228677D01*
Y229797D01*
G01X-137415Y21397D02*
Y18897D01*
X-136348D01*
G01X-135189Y20980D02*
X-135029Y21230D01*
X-134842Y21355D01*
X-134629Y21397D01*
X-134362Y21313D01*
X-134175Y21105D01*
X-134122Y20855D01*
X-134148Y20605D01*
X-134255Y20397D01*
X-134789Y19980D01*
X-135029Y19689D01*
X-135189Y19272D01*
X-135242Y18897D01*
X-134122D01*
G01X-132482Y18813D02*
X-132535Y18855D01*
Y18939D01*
X-132482Y18980D01*
X-132429Y18939D01*
Y18855D01*
X-132482Y18813D01*
G01Y19939D02*
X-132535Y19980D01*
Y20063D01*
X-132482Y20105D01*
X-132429Y20063D01*
Y19980D01*
X-132482Y19939D01*
G01X-127869Y20230D02*
X-127762Y20355D01*
X-127682Y20563D01*
X-127628Y20855D01*
X-127682Y21105D01*
X-127789Y21272D01*
X-127975Y21397D01*
X-128695D01*
Y18897D01*
X-127815D01*
X-127628Y19063D01*
X-127522Y19313D01*
X-127469Y19605D01*
X-127522Y19897D01*
X-127682Y20147D01*
X-127869Y20230D01*
X-128695D01*
G01X-125882Y18897D02*
X-126095Y18939D01*
X-126282Y19105D01*
X-126442Y19355D01*
X-126548Y19647D01*
X-126602Y19980D01*
Y20313D01*
X-126548Y20647D01*
X-126442Y20939D01*
X-126282Y21189D01*
X-126095Y21355D01*
X-125882Y21397D01*
X-125669Y21355D01*
X-125482Y21189D01*
X-125322Y20939D01*
X-125215Y20647D01*
X-125162Y20313D01*
Y19980D01*
X-125215Y19647D01*
X-125322Y19355D01*
X-125482Y19105D01*
X-125669Y18939D01*
X-125882Y18897D01*
G01X-123682Y21397D02*
Y18897D01*
G01X-124295Y21397D02*
X-123069D01*
G01X-121482D02*
Y18897D01*
G01X-122095Y21397D02*
X-120869D01*
G01X-119282Y18897D02*
X-119495Y18939D01*
X-119682Y19105D01*
X-119842Y19355D01*
X-119948Y19647D01*
X-120002Y19980D01*
Y20313D01*
X-119948Y20647D01*
X-119842Y20939D01*
X-119682Y21189D01*
X-119495Y21355D01*
X-119282Y21397D01*
X-119069Y21355D01*
X-118882Y21189D01*
X-118722Y20939D01*
X-118615Y20647D01*
X-118562Y20313D01*
Y19980D01*
X-118615Y19647D01*
X-118722Y19355D01*
X-118882Y19105D01*
X-119069Y18939D01*
X-119282Y18897D01*
G01X-117775D02*
Y21397D01*
X-117082Y19313D01*
X-116389Y21397D01*
Y18897D01*
G01X-112095Y21189D02*
X-112255Y21313D01*
X-112442Y21397D01*
X-112655D01*
X-112895Y21272D01*
X-113082Y21063D01*
X-113215Y20813D01*
X-113322Y20397D01*
X-113348Y20022D01*
X-113295Y19647D01*
X-113215Y19397D01*
X-113055Y19147D01*
X-112869Y18980D01*
X-112682Y18897D01*
X-112495D01*
X-112309Y18980D01*
X-112148Y19105D01*
X-112015Y19272D01*
G01X-110482Y18897D02*
X-110695Y18939D01*
X-110882Y19105D01*
X-111042Y19355D01*
X-111148Y19647D01*
X-111202Y19980D01*
Y20313D01*
X-111148Y20647D01*
X-111042Y20939D01*
X-110882Y21189D01*
X-110695Y21355D01*
X-110482Y21397D01*
X-110269Y21355D01*
X-110082Y21189D01*
X-109922Y20939D01*
X-109815Y20647D01*
X-109762Y20313D01*
Y19980D01*
X-109815Y19647D01*
X-109922Y19355D01*
X-110082Y19105D01*
X-110269Y18939D01*
X-110482Y18897D01*
G01X-108895D02*
Y21397D01*
X-107669Y18897D01*
Y21397D01*
G01X-106669Y18897D02*
Y21397D01*
X-106135D01*
X-105922Y21272D01*
X-105762Y21105D01*
X-105628Y20855D01*
X-105522Y20563D01*
X-105495Y20147D01*
X-105522Y19730D01*
X-105628Y19439D01*
X-105762Y19189D01*
X-105922Y19022D01*
X-106135Y18897D01*
X-106669D01*
G01X-104469Y21397D02*
Y19605D01*
X-104362Y19230D01*
X-104148Y18980D01*
X-103882Y18897D01*
X-103615Y18980D01*
X-103402Y19230D01*
X-103295Y19605D01*
Y21397D01*
G01X-101095Y21189D02*
X-101255Y21313D01*
X-101442Y21397D01*
X-101655D01*
X-101895Y21272D01*
X-102082Y21063D01*
X-102215Y20813D01*
X-102322Y20397D01*
X-102348Y20022D01*
X-102295Y19647D01*
X-102215Y19397D01*
X-102055Y19147D01*
X-101869Y18980D01*
X-101682Y18897D01*
X-101495D01*
X-101309Y18980D01*
X-101148Y19105D01*
X-101015Y19272D01*
G01X-99482Y21397D02*
Y18897D01*
G01X-100095Y21397D02*
X-98869D01*
G01X-97282Y18897D02*
X-97495Y18939D01*
X-97682Y19105D01*
X-97842Y19355D01*
X-97948Y19647D01*
X-98002Y19980D01*
Y20313D01*
X-97948Y20647D01*
X-97842Y20939D01*
X-97682Y21189D01*
X-97495Y21355D01*
X-97282Y21397D01*
X-97069Y21355D01*
X-96882Y21189D01*
X-96722Y20939D01*
X-96615Y20647D01*
X-96562Y20313D01*
Y19980D01*
X-96615Y19647D01*
X-96722Y19355D01*
X-96882Y19105D01*
X-97069Y18939D01*
X-97282Y18897D01*
G01X-95615D02*
Y21397D01*
X-94948D01*
X-94735Y21272D01*
X-94602Y21105D01*
X-94548Y20772D01*
X-94602Y20439D01*
X-94762Y20230D01*
X-94948Y20105D01*
X-95615D01*
G01X-94948D02*
X-94548Y18897D01*
G01X-91029Y19730D02*
X-90335D01*
G01X-85695Y21189D02*
X-85855Y21313D01*
X-86042Y21397D01*
X-86255D01*
X-86495Y21272D01*
X-86682Y21063D01*
X-86815Y20813D01*
X-86922Y20397D01*
X-86948Y20022D01*
X-86895Y19647D01*
X-86815Y19397D01*
X-86655Y19147D01*
X-86469Y18980D01*
X-86282Y18897D01*
X-86095D01*
X-85909Y18980D01*
X-85748Y19105D01*
X-85615Y19272D01*
G01X-84082Y18897D02*
X-84295Y18939D01*
X-84482Y19105D01*
X-84642Y19355D01*
X-84748Y19647D01*
X-84802Y19980D01*
Y20313D01*
X-84748Y20647D01*
X-84642Y20939D01*
X-84482Y21189D01*
X-84295Y21355D01*
X-84082Y21397D01*
X-83869Y21355D01*
X-83682Y21189D01*
X-83522Y20939D01*
X-83415Y20647D01*
X-83362Y20313D01*
Y19980D01*
X-83415Y19647D01*
X-83522Y19355D01*
X-83682Y19105D01*
X-83869Y18939D01*
X-84082Y18897D01*
G01X-82415D02*
Y21397D01*
X-81775D01*
X-81562Y21272D01*
X-81402Y20980D01*
X-81348Y20647D01*
X-81402Y20313D01*
X-81535Y20063D01*
X-81775Y19939D01*
X-82415D01*
G01X-80215Y18897D02*
Y21397D01*
X-79575D01*
X-79362Y21272D01*
X-79202Y20980D01*
X-79148Y20647D01*
X-79202Y20313D01*
X-79335Y20063D01*
X-79575Y19939D01*
X-80215D01*
G01X-76948Y18897D02*
X-78015D01*
Y21397D01*
X-76948D01*
G01X-77375Y20189D02*
X-78015D01*
G01X-75815Y18897D02*
Y21397D01*
X-75148D01*
X-74935Y21272D01*
X-74802Y21105D01*
X-74748Y20772D01*
X-74802Y20439D01*
X-74962Y20230D01*
X-75148Y20105D01*
X-75815D01*
G01X-75148D02*
X-74748Y18897D01*
G01X-70882Y21397D02*
X-71095Y21313D01*
X-71255Y21105D01*
X-71362Y20855D01*
X-71442Y20522D01*
X-71469Y20147D01*
X-71442Y19772D01*
X-71362Y19439D01*
X-71255Y19189D01*
X-71095Y18980D01*
X-70882Y18897D01*
X-70669Y18980D01*
X-70509Y19189D01*
X-70402Y19439D01*
X-70322Y19772D01*
X-70295Y20147D01*
X-70322Y20522D01*
X-70402Y20855D01*
X-70509Y21105D01*
X-70669Y21313D01*
X-70882Y21397D01*
G01X-68682Y18813D02*
X-68735Y18855D01*
Y18939D01*
X-68682Y18980D01*
X-68629Y18939D01*
Y18855D01*
X-68682Y18813D01*
G01X-66482Y21397D02*
X-66695Y21313D01*
X-66855Y21105D01*
X-66962Y20855D01*
X-67042Y20522D01*
X-67069Y20147D01*
X-67042Y19772D01*
X-66962Y19439D01*
X-66855Y19189D01*
X-66695Y18980D01*
X-66482Y18897D01*
X-66269Y18980D01*
X-66109Y19189D01*
X-66002Y19439D01*
X-65922Y19772D01*
X-65895Y20147D01*
X-65922Y20522D01*
X-66002Y20855D01*
X-66109Y21105D01*
X-66269Y21313D01*
X-66482Y21397D01*
G01X-64282Y18897D02*
Y21397D01*
X-64602Y20897D01*
G01Y18897D02*
X-63962D01*
G01X-62082D02*
X-61895Y18939D01*
X-61682Y19063D01*
X-61548Y19272D01*
X-61495Y19563D01*
X-61548Y19855D01*
X-61709Y20105D01*
X-61948Y20230D01*
X-62215D01*
X-62375Y20313D01*
X-62509Y20522D01*
X-62562Y20813D01*
X-62482Y21105D01*
X-62295Y21313D01*
X-62082Y21397D01*
X-61869Y21313D01*
X-61682Y21105D01*
X-61602Y20813D01*
X-61655Y20522D01*
X-61789Y20313D01*
X-61948Y20230D01*
X-62215D01*
X-62455Y20105D01*
X-62615Y19855D01*
X-62669Y19563D01*
X-62615Y19272D01*
X-62482Y19063D01*
X-62269Y18939D01*
X-62082Y18897D01*
G01X-58375D02*
Y21397D01*
X-57682Y19313D01*
X-56989Y21397D01*
Y18897D01*
G01X-56175D02*
Y21397D01*
X-55482Y19313D01*
X-54789Y21397D01*
Y18897D01*
G01X-133069Y15480D02*
X-131895Y17314D01*
G01X-132482Y17647D02*
Y15147D01*
G01X-131895Y15480D02*
X-133069Y17314D01*
G01X-133282Y16397D02*
X-131682D01*
G01X-126442Y15897D02*
X-126229Y15689D01*
X-125989Y15564D01*
X-125775D01*
X-125562Y15689D01*
X-125402Y15897D01*
X-125322Y16189D01*
X-125375Y16480D01*
X-125509Y16730D01*
X-125748Y16897D01*
X-126069Y16980D01*
X-126255Y17147D01*
X-126335Y17439D01*
X-126282Y17730D01*
X-126148Y17939D01*
X-125962Y18064D01*
X-125775D01*
X-125589Y17980D01*
X-125428Y17772D01*
G01X-124269Y18064D02*
Y16272D01*
X-124162Y15897D01*
X-123948Y15647D01*
X-123682Y15564D01*
X-123415Y15647D01*
X-123202Y15897D01*
X-123095Y16272D01*
Y18064D01*
G01X-122015Y15564D02*
Y18064D01*
X-121348D01*
X-121135Y17939D01*
X-121002Y17772D01*
X-120948Y17439D01*
X-121002Y17106D01*
X-121162Y16897D01*
X-121348Y16772D01*
X-122015D01*
G01X-121348D02*
X-120948Y15564D01*
G01X-119789D02*
Y18064D01*
X-118775D01*
G01X-119148Y16856D02*
X-119789D01*
G01X-117748Y15564D02*
X-117082Y18064D01*
X-116415Y15564D01*
G01X-116655Y16439D02*
X-117509D01*
G01X-114295Y17856D02*
X-114455Y17980D01*
X-114642Y18064D01*
X-114855D01*
X-115095Y17939D01*
X-115282Y17730D01*
X-115415Y17480D01*
X-115522Y17064D01*
X-115548Y16689D01*
X-115495Y16314D01*
X-115415Y16064D01*
X-115255Y15814D01*
X-115069Y15647D01*
X-114882Y15564D01*
X-114695D01*
X-114509Y15647D01*
X-114348Y15772D01*
X-114215Y15939D01*
G01X-112148Y15564D02*
X-113215D01*
Y18064D01*
X-112148D01*
G01X-112575Y16856D02*
X-113215D01*
G01X-108629Y16397D02*
X-107935D01*
G01X-104548Y15564D02*
X-103882Y18064D01*
X-103215Y15564D01*
G01X-103455Y16439D02*
X-104309D01*
G01X-102002Y18064D02*
X-101362D01*
G01X-101682D02*
Y15564D01*
G01X-102002D02*
X-101362D01*
G01X-100015D02*
Y18064D01*
X-99348D01*
X-99135Y17939D01*
X-99002Y17772D01*
X-98948Y17439D01*
X-99002Y17106D01*
X-99162Y16897D01*
X-99348Y16772D01*
X-100015D01*
G01X-99348D02*
X-98948Y15564D01*
G01X-95082Y18064D02*
X-95295Y17980D01*
X-95455Y17772D01*
X-95562Y17522D01*
X-95642Y17189D01*
X-95669Y16814D01*
X-95642Y16439D01*
X-95562Y16106D01*
X-95455Y15856D01*
X-95295Y15647D01*
X-95082Y15564D01*
X-94869Y15647D01*
X-94709Y15856D01*
X-94602Y16106D01*
X-94522Y16439D01*
X-94495Y16814D01*
X-94522Y17189D01*
X-94602Y17522D01*
X-94709Y17772D01*
X-94869Y17980D01*
X-95082Y18064D01*
G01X-91375Y15564D02*
Y18064D01*
X-90682Y15980D01*
X-89989Y18064D01*
Y15564D01*
G01X-89175D02*
Y18064D01*
X-88482Y15980D01*
X-87789Y18064D01*
Y15564D01*
G01X-133069Y120666D02*
X-131895Y122500D01*
G01X-132482Y122833D02*
Y120333D01*
G01X-131895Y120666D02*
X-133069Y122500D01*
G01X-133282Y121583D02*
X-131682D01*
G01X-126469Y120750D02*
Y123250D01*
X-125935D01*
X-125722Y123124D01*
X-125562Y122958D01*
X-125428Y122708D01*
X-125322Y122416D01*
X-125295Y122000D01*
X-125322Y121583D01*
X-125428Y121291D01*
X-125562Y121041D01*
X-125722Y120874D01*
X-125935Y120750D01*
X-126469D01*
G01X-124002Y123250D02*
X-123362D01*
G01X-123682D02*
Y120750D01*
G01X-124002D02*
X-123362D01*
G01X-120948D02*
X-122015D01*
Y123250D01*
X-120948D01*
G01X-121375Y122041D02*
X-122015D01*
G01X-119815Y123250D02*
Y120750D01*
X-118748D01*
G01X-116548D02*
X-117615D01*
Y123250D01*
X-116548D01*
G01X-116975Y122041D02*
X-117615D01*
G01X-114295Y123041D02*
X-114455Y123166D01*
X-114642Y123250D01*
X-114855D01*
X-115095Y123124D01*
X-115282Y122916D01*
X-115415Y122666D01*
X-115522Y122250D01*
X-115548Y121874D01*
X-115495Y121500D01*
X-115415Y121250D01*
X-115255Y121000D01*
X-115069Y120833D01*
X-114882Y120750D01*
X-114695D01*
X-114509Y120833D01*
X-114348Y120958D01*
X-114215Y121124D01*
G01X-112682Y123250D02*
Y120750D01*
G01X-113295Y123250D02*
X-112069D01*
G01X-111015Y120750D02*
Y123250D01*
X-110348D01*
X-110135Y123124D01*
X-110002Y122958D01*
X-109948Y122624D01*
X-110002Y122291D01*
X-110162Y122083D01*
X-110348Y121958D01*
X-111015D01*
G01X-110348D02*
X-109948Y120750D01*
G01X-108602Y123250D02*
X-107962D01*
G01X-108282D02*
Y120750D01*
G01X-108602D02*
X-107962D01*
G01X-105495Y123041D02*
X-105655Y123166D01*
X-105842Y123250D01*
X-106055D01*
X-106295Y123124D01*
X-106482Y122916D01*
X-106615Y122666D01*
X-106722Y122250D01*
X-106748Y121874D01*
X-106695Y121500D01*
X-106615Y121250D01*
X-106455Y121000D01*
X-106269Y120833D01*
X-106082Y120750D01*
X-105895D01*
X-105709Y120833D01*
X-105548Y120958D01*
X-105415Y121124D01*
G01X-102029Y121583D02*
X-101335D01*
G01X-97789Y120750D02*
Y123250D01*
X-96775D01*
G01X-97148Y122041D02*
X-97789D01*
G01X-95615Y120750D02*
Y123250D01*
X-94948D01*
X-94735Y123124D01*
X-94602Y122958D01*
X-94548Y122624D01*
X-94602Y122291D01*
X-94762Y122083D01*
X-94948Y121958D01*
X-95615D01*
G01X-94948D02*
X-94548Y120750D01*
G01X-93229Y121583D02*
X-92535D01*
G01X-90362Y120750D02*
Y123250D01*
X-91348Y121458D01*
X-90015D01*
G01X-86282Y120750D02*
Y123250D01*
X-86602Y122750D01*
G01Y120750D02*
X-85962D01*
G01X-84082Y120666D02*
X-84135Y120708D01*
Y120791D01*
X-84082Y120833D01*
X-84029Y120791D01*
Y120708D01*
X-84082Y120666D01*
G01X-82469Y121124D02*
X-82309Y120916D01*
X-82122Y120791D01*
X-81882Y120750D01*
X-81642Y120833D01*
X-81455Y121000D01*
X-81322Y121291D01*
X-81295Y121624D01*
X-81348Y121958D01*
X-81482Y122166D01*
X-81669Y122333D01*
X-81855Y122374D01*
X-82042Y122333D01*
X-82282Y122166D01*
X-82202Y123250D01*
X-81482D01*
G01X-80189Y121791D02*
X-80002Y122083D01*
X-79842Y122250D01*
X-79629Y122333D01*
X-79442Y122250D01*
X-79309Y122083D01*
X-79202Y121833D01*
X-79175Y121541D01*
X-79202Y121291D01*
X-79309Y121041D01*
X-79469Y120833D01*
X-79655Y120750D01*
X-79869Y120833D01*
X-80055Y121083D01*
X-80162Y121458D01*
X-80189Y121874D01*
X-80135Y122416D01*
X-80055Y122708D01*
X-79922Y123000D01*
X-79735Y123208D01*
X-79548Y123250D01*
X-79362Y123166D01*
X-79228Y122958D01*
G01X-77162Y120750D02*
Y123250D01*
X-78148Y121458D01*
X-76815D01*
G01X-73775Y120750D02*
Y123250D01*
X-73082Y121166D01*
X-72389Y123250D01*
Y120750D01*
G01X-71575D02*
Y123250D01*
X-70882Y121166D01*
X-70189Y123250D01*
Y120750D01*
G01X-133069Y222287D02*
X-131895Y224120D01*
G01X-132482Y224454D02*
Y221954D01*
G01X-131895Y222287D02*
X-133069Y224120D01*
G01X-133282Y223204D02*
X-131682D01*
G01X-126442Y222703D02*
X-126229Y222495D01*
X-125989Y222370D01*
X-125775D01*
X-125562Y222495D01*
X-125402Y222703D01*
X-125322Y222995D01*
X-125375Y223287D01*
X-125509Y223537D01*
X-125748Y223704D01*
X-126069Y223787D01*
X-126255Y223954D01*
X-126335Y224245D01*
X-126282Y224537D01*
X-126148Y224745D01*
X-125962Y224870D01*
X-125775D01*
X-125589Y224787D01*
X-125428Y224578D01*
G01X-124269Y224870D02*
Y223078D01*
X-124162Y222703D01*
X-123948Y222454D01*
X-123682Y222370D01*
X-123415Y222454D01*
X-123202Y222703D01*
X-123095Y223078D01*
Y224870D01*
G01X-122015Y222370D02*
Y224870D01*
X-121348D01*
X-121135Y224745D01*
X-121002Y224578D01*
X-120948Y224245D01*
X-121002Y223912D01*
X-121162Y223704D01*
X-121348Y223578D01*
X-122015D01*
G01X-121348D02*
X-120948Y222370D01*
G01X-119789D02*
Y224870D01*
X-118775D01*
G01X-119148Y223662D02*
X-119789D01*
G01X-117748Y222370D02*
X-117082Y224870D01*
X-116415Y222370D01*
G01X-116655Y223245D02*
X-117509D01*
G01X-114295Y224662D02*
X-114455Y224787D01*
X-114642Y224870D01*
X-114855D01*
X-115095Y224745D01*
X-115282Y224537D01*
X-115415Y224287D01*
X-115522Y223870D01*
X-115548Y223495D01*
X-115495Y223120D01*
X-115415Y222870D01*
X-115255Y222620D01*
X-115069Y222454D01*
X-114882Y222370D01*
X-114695D01*
X-114509Y222454D01*
X-114348Y222578D01*
X-114215Y222745D01*
G01X-112148Y222370D02*
X-113215D01*
Y224870D01*
X-112148D01*
G01X-112575Y223662D02*
X-113215D01*
G01X-108629Y223204D02*
X-107935D01*
G01X-104548Y222370D02*
X-103882Y224870D01*
X-103215Y222370D01*
G01X-103455Y223245D02*
X-104309D01*
G01X-102002Y224870D02*
X-101362D01*
G01X-101682D02*
Y222370D01*
G01X-102002D02*
X-101362D01*
G01X-100015D02*
Y224870D01*
X-99348D01*
X-99135Y224745D01*
X-99002Y224578D01*
X-98948Y224245D01*
X-99002Y223912D01*
X-99162Y223704D01*
X-99348Y223578D01*
X-100015D01*
G01X-99348D02*
X-98948Y222370D01*
G01X-95082Y224870D02*
X-95295Y224787D01*
X-95455Y224578D01*
X-95562Y224328D01*
X-95642Y223995D01*
X-95669Y223620D01*
X-95642Y223245D01*
X-95562Y222912D01*
X-95455Y222662D01*
X-95295Y222454D01*
X-95082Y222370D01*
X-94869Y222454D01*
X-94709Y222662D01*
X-94602Y222912D01*
X-94522Y223245D01*
X-94495Y223620D01*
X-94522Y223995D01*
X-94602Y224328D01*
X-94709Y224578D01*
X-94869Y224787D01*
X-95082Y224870D01*
G01X-91375Y222370D02*
Y224870D01*
X-90682Y222787D01*
X-89989Y224870D01*
Y222370D01*
G01X-89175D02*
Y224870D01*
X-88482Y222787D01*
X-87789Y224870D01*
Y222370D01*
G01X-137415Y220704D02*
Y218204D01*
X-136348D01*
G01X-134682D02*
Y220704D01*
X-135002Y220204D01*
G01Y218204D02*
X-134362D01*
G01X-132482Y218120D02*
X-132535Y218162D01*
Y218246D01*
X-132482Y218287D01*
X-132429Y218246D01*
Y218162D01*
X-132482Y218120D01*
G01Y219246D02*
X-132535Y219287D01*
Y219370D01*
X-132482Y219412D01*
X-132429Y219370D01*
Y219287D01*
X-132482Y219246D01*
G01X-128082Y220704D02*
Y218204D01*
G01X-128695Y220704D02*
X-127469D01*
G01X-125882Y218204D02*
X-126095Y218246D01*
X-126282Y218412D01*
X-126442Y218662D01*
X-126548Y218954D01*
X-126602Y219287D01*
Y219620D01*
X-126548Y219954D01*
X-126442Y220246D01*
X-126282Y220496D01*
X-126095Y220662D01*
X-125882Y220704D01*
X-125669Y220662D01*
X-125482Y220496D01*
X-125322Y220246D01*
X-125215Y219954D01*
X-125162Y219620D01*
Y219287D01*
X-125215Y218954D01*
X-125322Y218662D01*
X-125482Y218412D01*
X-125669Y218246D01*
X-125882Y218204D01*
G01X-124215D02*
Y220704D01*
X-123575D01*
X-123362Y220579D01*
X-123202Y220287D01*
X-123148Y219954D01*
X-123202Y219620D01*
X-123335Y219370D01*
X-123575Y219246D01*
X-124215D01*
G01X-118695Y220496D02*
X-118855Y220620D01*
X-119042Y220704D01*
X-119255D01*
X-119495Y220579D01*
X-119682Y220370D01*
X-119815Y220120D01*
X-119922Y219704D01*
X-119948Y219329D01*
X-119895Y218954D01*
X-119815Y218704D01*
X-119655Y218454D01*
X-119469Y218287D01*
X-119282Y218204D01*
X-119095D01*
X-118909Y218287D01*
X-118748Y218412D01*
X-118615Y218579D01*
G01X-117082Y218204D02*
X-117295Y218246D01*
X-117482Y218412D01*
X-117642Y218662D01*
X-117748Y218954D01*
X-117802Y219287D01*
Y219620D01*
X-117748Y219954D01*
X-117642Y220246D01*
X-117482Y220496D01*
X-117295Y220662D01*
X-117082Y220704D01*
X-116869Y220662D01*
X-116682Y220496D01*
X-116522Y220246D01*
X-116415Y219954D01*
X-116362Y219620D01*
Y219287D01*
X-116415Y218954D01*
X-116522Y218662D01*
X-116682Y218412D01*
X-116869Y218246D01*
X-117082Y218204D01*
G01X-115495D02*
Y220704D01*
X-114269Y218204D01*
Y220704D01*
G01X-113269Y218204D02*
Y220704D01*
X-112735D01*
X-112522Y220579D01*
X-112362Y220412D01*
X-112228Y220162D01*
X-112122Y219870D01*
X-112095Y219454D01*
X-112122Y219037D01*
X-112228Y218746D01*
X-112362Y218496D01*
X-112522Y218329D01*
X-112735Y218204D01*
X-113269D01*
G01X-111069Y220704D02*
Y218912D01*
X-110962Y218537D01*
X-110748Y218287D01*
X-110482Y218204D01*
X-110215Y218287D01*
X-110002Y218537D01*
X-109895Y218912D01*
Y220704D01*
G01X-107695Y220496D02*
X-107855Y220620D01*
X-108042Y220704D01*
X-108255D01*
X-108495Y220579D01*
X-108682Y220370D01*
X-108815Y220120D01*
X-108922Y219704D01*
X-108948Y219329D01*
X-108895Y218954D01*
X-108815Y218704D01*
X-108655Y218454D01*
X-108469Y218287D01*
X-108282Y218204D01*
X-108095D01*
X-107909Y218287D01*
X-107748Y218412D01*
X-107615Y218579D01*
G01X-106082Y220704D02*
Y218204D01*
G01X-106695Y220704D02*
X-105469D01*
G01X-103882Y218204D02*
X-104095Y218246D01*
X-104282Y218412D01*
X-104442Y218662D01*
X-104548Y218954D01*
X-104602Y219287D01*
Y219620D01*
X-104548Y219954D01*
X-104442Y220246D01*
X-104282Y220496D01*
X-104095Y220662D01*
X-103882Y220704D01*
X-103669Y220662D01*
X-103482Y220496D01*
X-103322Y220246D01*
X-103215Y219954D01*
X-103162Y219620D01*
Y219287D01*
X-103215Y218954D01*
X-103322Y218662D01*
X-103482Y218412D01*
X-103669Y218246D01*
X-103882Y218204D01*
G01X-102215D02*
Y220704D01*
X-101548D01*
X-101335Y220579D01*
X-101202Y220412D01*
X-101148Y220079D01*
X-101202Y219746D01*
X-101362Y219537D01*
X-101548Y219412D01*
X-102215D01*
G01X-101548D02*
X-101148Y218204D01*
G01X-97629Y219037D02*
X-96935D01*
G01X-92295Y220496D02*
X-92455Y220620D01*
X-92642Y220704D01*
X-92855D01*
X-93095Y220579D01*
X-93282Y220370D01*
X-93415Y220120D01*
X-93522Y219704D01*
X-93548Y219329D01*
X-93495Y218954D01*
X-93415Y218704D01*
X-93255Y218454D01*
X-93069Y218287D01*
X-92882Y218204D01*
X-92695D01*
X-92509Y218287D01*
X-92348Y218412D01*
X-92215Y218579D01*
G01X-90682Y218204D02*
X-90895Y218246D01*
X-91082Y218412D01*
X-91242Y218662D01*
X-91348Y218954D01*
X-91402Y219287D01*
Y219620D01*
X-91348Y219954D01*
X-91242Y220246D01*
X-91082Y220496D01*
X-90895Y220662D01*
X-90682Y220704D01*
X-90469Y220662D01*
X-90282Y220496D01*
X-90122Y220246D01*
X-90015Y219954D01*
X-89962Y219620D01*
Y219287D01*
X-90015Y218954D01*
X-90122Y218662D01*
X-90282Y218412D01*
X-90469Y218246D01*
X-90682Y218204D01*
G01X-89015D02*
Y220704D01*
X-88375D01*
X-88162Y220579D01*
X-88002Y220287D01*
X-87948Y219954D01*
X-88002Y219620D01*
X-88135Y219370D01*
X-88375Y219246D01*
X-89015D01*
G01X-86815Y218204D02*
Y220704D01*
X-86175D01*
X-85962Y220579D01*
X-85802Y220287D01*
X-85748Y219954D01*
X-85802Y219620D01*
X-85935Y219370D01*
X-86175Y219246D01*
X-86815D01*
G01X-83548Y218204D02*
X-84615D01*
Y220704D01*
X-83548D01*
G01X-83975Y219496D02*
X-84615D01*
G01X-82415Y218204D02*
Y220704D01*
X-81748D01*
X-81535Y220579D01*
X-81402Y220412D01*
X-81348Y220079D01*
X-81402Y219746D01*
X-81562Y219537D01*
X-81748Y219412D01*
X-82415D01*
G01X-81748D02*
X-81348Y218204D01*
G01X-77482Y220704D02*
X-77695Y220620D01*
X-77855Y220412D01*
X-77962Y220162D01*
X-78042Y219829D01*
X-78069Y219454D01*
X-78042Y219079D01*
X-77962Y218746D01*
X-77855Y218496D01*
X-77695Y218287D01*
X-77482Y218204D01*
X-77269Y218287D01*
X-77109Y218496D01*
X-77002Y218746D01*
X-76922Y219079D01*
X-76895Y219454D01*
X-76922Y219829D01*
X-77002Y220162D01*
X-77109Y220412D01*
X-77269Y220620D01*
X-77482Y220704D01*
G01X-75282Y218120D02*
X-75335Y218162D01*
Y218246D01*
X-75282Y218287D01*
X-75229Y218246D01*
Y218162D01*
X-75282Y218120D01*
G01X-73082Y220704D02*
X-73295Y220620D01*
X-73455Y220412D01*
X-73562Y220162D01*
X-73642Y219829D01*
X-73669Y219454D01*
X-73642Y219079D01*
X-73562Y218746D01*
X-73455Y218496D01*
X-73295Y218287D01*
X-73082Y218204D01*
X-72869Y218287D01*
X-72709Y218496D01*
X-72602Y218746D01*
X-72522Y219079D01*
X-72495Y219454D01*
X-72522Y219829D01*
X-72602Y220162D01*
X-72709Y220412D01*
X-72869Y220620D01*
X-73082Y220704D01*
G01X-70882Y218204D02*
Y220704D01*
X-71202Y220204D01*
G01Y218204D02*
X-70562D01*
G01X-68682D02*
X-68495Y218246D01*
X-68282Y218370D01*
X-68148Y218579D01*
X-68095Y218870D01*
X-68148Y219162D01*
X-68309Y219412D01*
X-68548Y219537D01*
X-68815D01*
X-68975Y219620D01*
X-69109Y219829D01*
X-69162Y220120D01*
X-69082Y220412D01*
X-68895Y220620D01*
X-68682Y220704D01*
X-68469Y220620D01*
X-68282Y220412D01*
X-68202Y220120D01*
X-68255Y219829D01*
X-68389Y219620D01*
X-68548Y219537D01*
X-68815D01*
X-69055Y219412D01*
X-69215Y219162D01*
X-69269Y218870D01*
X-69215Y218579D01*
X-69082Y218370D01*
X-68869Y218246D01*
X-68682Y218204D01*
G01X-64975D02*
Y220704D01*
X-64282Y218620D01*
X-63589Y220704D01*
Y218204D01*
G01X-62775D02*
Y220704D01*
X-62082Y218620D01*
X-61389Y220704D01*
Y218204D01*
G01X-199882Y22230D02*
Y219269D01*
X-139882D01*
Y22230D01*
X-199882D01*
G01X-2480Y-124646D02*
Y-24055D01*
X481120D01*
Y-124646D01*
X-2480D01*
G01Y-74646D02*
X481120D01*
G01X-2480Y-99646D02*
X481120D01*
G01X-2480Y-49646D02*
X481120D01*
G01X8524Y-93396D02*
Y-80896D01*
X14415D01*
G01X12244Y-86937D02*
X8524D01*
G01X22010Y-80896D02*
X25730D01*
G01X23870D02*
Y-93396D01*
G01X22010D02*
X25730D01*
G01X37200Y-87146D02*
X40300D01*
Y-90896D01*
X39370Y-92146D01*
X38285Y-92979D01*
X36735Y-93396D01*
X35185Y-92979D01*
X34100Y-92146D01*
X33170Y-90896D01*
X32550Y-89437D01*
X32239Y-87771D01*
Y-86312D01*
X32550Y-85063D01*
X33170Y-83604D01*
X34100Y-82354D01*
X35030Y-81521D01*
X36270Y-80896D01*
X37355D01*
X38594Y-81312D01*
X39525Y-82146D01*
G01X45260Y-80896D02*
Y-89854D01*
X45880Y-91730D01*
X47120Y-92979D01*
X48670Y-93396D01*
X50220Y-92979D01*
X51460Y-91730D01*
X52080Y-89854D01*
Y-80896D01*
G01X57970Y-93396D02*
Y-80896D01*
X61844D01*
X63085Y-81521D01*
X63860Y-82354D01*
X64170Y-84021D01*
X63860Y-85687D01*
X62930Y-86729D01*
X61844Y-87354D01*
X57970D01*
G01X61844D02*
X64170Y-93396D01*
G01X76570D02*
X70370D01*
Y-80896D01*
X76570D01*
G01X74090Y-86937D02*
X70370D01*
G01X87420Y-74646D02*
Y-124646D01*
G01X68044Y-68396D02*
X71920Y-55896D01*
X75795Y-68396D01*
G01X74400Y-64021D02*
X69439D01*
G01X81220Y-55896D02*
Y-68396D01*
X87420D01*
G01X93620Y-55896D02*
Y-68396D01*
X99820D01*
G01X118110Y-55896D02*
Y-64854D01*
X118730Y-66730D01*
X119970Y-67979D01*
X121520Y-68396D01*
X123070Y-67979D01*
X124310Y-66730D01*
X124930Y-64854D01*
Y-55896D01*
G01X130355Y-68396D02*
Y-55896D01*
X137485Y-68396D01*
Y-55896D01*
G01X144460D02*
X148180D01*
G01X146320D02*
Y-68396D01*
G01X144460D02*
X148180D01*
G01X158720Y-55896D02*
Y-68396D01*
G01X155155Y-55896D02*
X162285D01*
G01X167865Y-66730D02*
X169105Y-67771D01*
X170500Y-68396D01*
X171740D01*
X172980Y-67771D01*
X173910Y-66730D01*
X174375Y-65270D01*
X174065Y-63813D01*
X173290Y-62563D01*
X171894Y-61729D01*
X170035Y-61312D01*
X168950Y-60479D01*
X168485Y-59021D01*
X168795Y-57562D01*
X169570Y-56521D01*
X170655Y-55896D01*
X171740D01*
X172825Y-56312D01*
X173755Y-57354D01*
G01X192044Y-68396D02*
X195920Y-55896D01*
X199795Y-68396D01*
G01X198400Y-64021D02*
X193439D01*
G01X205220Y-68396D02*
Y-55896D01*
X209094D01*
X210335Y-56521D01*
X211110Y-57354D01*
X211420Y-59021D01*
X211110Y-60687D01*
X210180Y-61729D01*
X209094Y-62354D01*
X205220D01*
G01X209094D02*
X211420Y-68396D01*
G01X223820D02*
X217620D01*
Y-55896D01*
X223820D01*
G01X221340Y-61937D02*
X217620D01*
G01X243660Y-55896D02*
X247380D01*
G01X245520D02*
Y-68396D01*
G01X243660D02*
X247380D01*
G01X254355D02*
Y-55896D01*
X261485Y-68396D01*
Y-55896D01*
G01X278689Y-68396D02*
Y-55896D01*
X282720Y-66312D01*
X286750Y-55896D01*
Y-68396D01*
G01X293260Y-55896D02*
X296980D01*
G01X295120D02*
Y-68396D01*
G01X293260D02*
X296980D01*
G01X304420Y-55896D02*
Y-68396D01*
X310620D01*
G01X316820Y-55896D02*
Y-68396D01*
X323020D01*
G01X330460Y-55896D02*
X334180D01*
G01X332320D02*
Y-68396D01*
G01X330460D02*
X334180D01*
G01X340689D02*
Y-55896D01*
X344720Y-66312D01*
X348750Y-55896D01*
Y-68396D01*
G01X360220D02*
X354020D01*
Y-55896D01*
X360220D01*
G01X357740Y-61937D02*
X354020D01*
G01X369520Y-55896D02*
Y-68396D01*
G01X365955Y-55896D02*
X373085D01*
G01X385020Y-68396D02*
X378820D01*
Y-55896D01*
X385020D01*
G01X382540Y-61937D02*
X378820D01*
G01X391220Y-68396D02*
Y-55896D01*
X395094D01*
X396335Y-56521D01*
X397110Y-57354D01*
X397420Y-59021D01*
X397110Y-60687D01*
X396180Y-61729D01*
X395094Y-62354D01*
X391220D01*
G01X395094D02*
X397420Y-68396D01*
G01X403465Y-66730D02*
X404705Y-67771D01*
X406100Y-68396D01*
X407340D01*
X408580Y-67771D01*
X409510Y-66730D01*
X409975Y-65270D01*
X409665Y-63813D01*
X408890Y-62563D01*
X407494Y-61729D01*
X405635Y-61312D01*
X404550Y-60479D01*
X404085Y-59021D01*
X404395Y-57562D01*
X405170Y-56521D01*
X406255Y-55896D01*
X407340D01*
X408425Y-56312D01*
X409355Y-57354D01*
G01X80910Y-42805D02*
Y-30305D01*
X84009D01*
X85250Y-30930D01*
X86180Y-31763D01*
X86955Y-33013D01*
X87575Y-34472D01*
X87730Y-36555D01*
X87575Y-38639D01*
X86955Y-40097D01*
X86180Y-41347D01*
X85250Y-42180D01*
X84009Y-42805D01*
X80910D01*
G01X93620D02*
Y-30305D01*
X97494D01*
X98735Y-30930D01*
X99510Y-31763D01*
X99820Y-33430D01*
X99510Y-35097D01*
X98580Y-36138D01*
X97494Y-36764D01*
X93620D01*
G01X97494D02*
X99820Y-42805D01*
G01X107260Y-30305D02*
X110980D01*
G01X109120D02*
Y-42805D01*
G01X107260D02*
X110980D01*
G01X118420Y-30305D02*
Y-42805D01*
X124620D01*
G01X130820Y-30305D02*
Y-42805D01*
X137020D01*
G01X162130Y-31347D02*
X161200Y-30722D01*
X160115Y-30305D01*
X158875D01*
X157480Y-30930D01*
X156395Y-31972D01*
X155620Y-33222D01*
X155000Y-35305D01*
X154844Y-37180D01*
X155155Y-39055D01*
X155620Y-40305D01*
X156550Y-41556D01*
X157635Y-42389D01*
X158720Y-42805D01*
X159805D01*
X160890Y-42389D01*
X161820Y-41764D01*
X162595Y-40931D01*
G01X167865Y-42805D02*
Y-30305D01*
G01X174375D02*
Y-42805D01*
G01Y-36555D02*
X167865D01*
G01X179644Y-42805D02*
X183520Y-30305D01*
X187395Y-42805D01*
G01X186000Y-38430D02*
X181039D01*
G01X192820Y-42805D02*
Y-30305D01*
X196694D01*
X197935Y-30930D01*
X198710Y-31763D01*
X199020Y-33430D01*
X198710Y-35097D01*
X197780Y-36138D01*
X196694Y-36764D01*
X192820D01*
G01X196694D02*
X199020Y-42805D01*
G01X208320Y-30305D02*
Y-42805D01*
G01X204755Y-30305D02*
X211885D01*
G01X220720Y-43222D02*
X220409Y-43013D01*
Y-42597D01*
X220720Y-42389D01*
X221030Y-42597D01*
Y-43013D01*
X220720Y-43222D01*
G01Y-37597D02*
X220409Y-37389D01*
Y-36972D01*
X220720Y-36764D01*
X221030Y-36972D01*
Y-37389D01*
X220720Y-37597D01*
G01X245520Y-30305D02*
Y-42805D01*
G01X241955Y-30305D02*
X249085D01*
G01X257920Y-42805D02*
X256680Y-42597D01*
X255595Y-41764D01*
X254665Y-40513D01*
X254044Y-39055D01*
X253735Y-37389D01*
Y-35722D01*
X254044Y-34055D01*
X254665Y-32597D01*
X255595Y-31347D01*
X256680Y-30513D01*
X257920Y-30305D01*
X259159Y-30513D01*
X260244Y-31347D01*
X261175Y-32597D01*
X261795Y-34055D01*
X262105Y-35722D01*
Y-37389D01*
X261795Y-39055D01*
X261175Y-40513D01*
X260244Y-41764D01*
X259159Y-42597D01*
X257920Y-42805D01*
G01X267220D02*
Y-30305D01*
X270940D01*
X272180Y-30930D01*
X273110Y-32389D01*
X273420Y-34055D01*
X273110Y-35722D01*
X272335Y-36972D01*
X270940Y-37597D01*
X267220D01*
G01X295120Y-30305D02*
Y-42805D01*
G01X292950Y-34472D02*
X297290D01*
G01X307520Y-42805D02*
X306590Y-42597D01*
X305660Y-41764D01*
X305039Y-40305D01*
X304730Y-38639D01*
X305039Y-36972D01*
X305660Y-35513D01*
X306590Y-34680D01*
X307520Y-34472D01*
X308450Y-34680D01*
X309380Y-35513D01*
X310000Y-36972D01*
X310155Y-38639D01*
X310000Y-40305D01*
X309380Y-41764D01*
X308450Y-42597D01*
X307520Y-42805D01*
G01X333559Y-36138D02*
X334180Y-35513D01*
X334644Y-34472D01*
X334955Y-33013D01*
X334644Y-31763D01*
X334025Y-30930D01*
X332940Y-30305D01*
X328755D01*
Y-42805D01*
X333870D01*
X334955Y-41972D01*
X335575Y-40722D01*
X335885Y-39263D01*
X335575Y-37806D01*
X334644Y-36555D01*
X333559Y-36138D01*
X328755D01*
G01X344720Y-42805D02*
X343480Y-42597D01*
X342395Y-41764D01*
X341465Y-40513D01*
X340844Y-39055D01*
X340535Y-37389D01*
Y-35722D01*
X340844Y-34055D01*
X341465Y-32597D01*
X342395Y-31347D01*
X343480Y-30513D01*
X344720Y-30305D01*
X345959Y-30513D01*
X347044Y-31347D01*
X347975Y-32597D01*
X348595Y-34055D01*
X348905Y-35722D01*
Y-37389D01*
X348595Y-39055D01*
X347975Y-40513D01*
X347044Y-41764D01*
X345959Y-42597D01*
X344720Y-42805D01*
G01X357120Y-30305D02*
Y-42805D01*
G01X353555Y-30305D02*
X360685D01*
G01X369520D02*
Y-42805D01*
G01X365955Y-30305D02*
X373085D01*
G01X381920Y-42805D02*
X380680Y-42597D01*
X379595Y-41764D01*
X378665Y-40513D01*
X378044Y-39055D01*
X377735Y-37389D01*
Y-35722D01*
X378044Y-34055D01*
X378665Y-32597D01*
X379595Y-31347D01*
X380680Y-30513D01*
X381920Y-30305D01*
X383159Y-30513D01*
X384244Y-31347D01*
X385175Y-32597D01*
X385795Y-34055D01*
X386105Y-35722D01*
Y-37389D01*
X385795Y-39055D01*
X385175Y-40513D01*
X384244Y-41764D01*
X383159Y-42597D01*
X381920Y-42805D01*
G01X390289D02*
Y-30305D01*
X394320Y-40722D01*
X398350Y-30305D01*
Y-42805D01*
G01X169570Y-105896D02*
X168330Y-106312D01*
X167400Y-107354D01*
X166780Y-108604D01*
X166315Y-110271D01*
X166160Y-112146D01*
X166315Y-114021D01*
X166780Y-115687D01*
X167400Y-116938D01*
X168330Y-117979D01*
X169570Y-118396D01*
X170809Y-117979D01*
X171740Y-116938D01*
X172360Y-115687D01*
X172825Y-114021D01*
X172980Y-112146D01*
X172825Y-110271D01*
X172360Y-108604D01*
X171740Y-107354D01*
X170809Y-106312D01*
X169570Y-105896D01*
G01X181970Y-118812D02*
X181659Y-118604D01*
Y-118187D01*
X181970Y-117979D01*
X182280Y-118187D01*
Y-118604D01*
X181970Y-118812D01*
G01X196230Y-118396D02*
Y-105896D01*
X190494Y-114854D01*
X198245D01*
G01X160115Y-91730D02*
X161355Y-92771D01*
X162750Y-93396D01*
X163990D01*
X165230Y-92771D01*
X166160Y-91730D01*
X166625Y-90270D01*
X166315Y-88813D01*
X165540Y-87563D01*
X164144Y-86729D01*
X162285Y-86312D01*
X161200Y-85479D01*
X160735Y-84021D01*
X161045Y-82562D01*
X161820Y-81521D01*
X162905Y-80896D01*
X163990D01*
X165075Y-81312D01*
X166005Y-82354D01*
G01X173910Y-80896D02*
X177630D01*
G01X175770D02*
Y-93396D01*
G01X173910D02*
X177630D01*
G01X185224Y-80896D02*
X191115D01*
X185224Y-93396D01*
X191115D01*
G01X203670D02*
X197470D01*
Y-80896D01*
X203670D01*
G01X201190Y-86937D02*
X197470D01*
G01X276520Y-74646D02*
Y-124646D01*
G01X305970Y-118396D02*
Y-105896D01*
X309690D01*
X310930Y-106521D01*
X311860Y-107979D01*
X312170Y-109646D01*
X311860Y-111312D01*
X311085Y-112563D01*
X309690Y-113188D01*
X305970D01*
G01X318370Y-105896D02*
Y-118396D01*
X324570D01*
G01X329994D02*
X333870Y-105896D01*
X337745Y-118396D01*
G01X336350Y-114021D02*
X331389D01*
G01X346270Y-105896D02*
Y-118396D01*
G01X342705Y-105896D02*
X349835D01*
G01X361770Y-118396D02*
X355570D01*
Y-105896D01*
X361770D01*
G01X359290Y-111937D02*
X355570D01*
G01X367660Y-118396D02*
Y-105896D01*
X370759D01*
X372000Y-106521D01*
X372930Y-107354D01*
X373705Y-108604D01*
X374325Y-110063D01*
X374480Y-112146D01*
X374325Y-114229D01*
X373705Y-115687D01*
X372930Y-116938D01*
X372000Y-117771D01*
X370759Y-118396D01*
X367660D01*
G01X305970Y-93396D02*
Y-80896D01*
X309690D01*
X310930Y-81521D01*
X311860Y-82979D01*
X312170Y-84646D01*
X311860Y-86312D01*
X311085Y-87563D01*
X309690Y-88188D01*
X305970D01*
G01X318370Y-80896D02*
Y-93396D01*
X324570D01*
G01X329994D02*
X333870Y-80896D01*
X337745Y-93396D01*
G01X336350Y-89021D02*
X331389D01*
G01X346270Y-80896D02*
Y-93396D01*
G01X342705Y-80896D02*
X349835D01*
G01X361770Y-93396D02*
X355570D01*
Y-80896D01*
X361770D01*
G01X359290Y-86937D02*
X355570D01*
G01X367660Y-93396D02*
Y-80896D01*
X370759D01*
X372000Y-81521D01*
X372930Y-82354D01*
X373705Y-83604D01*
X374325Y-85063D01*
X374480Y-87146D01*
X374325Y-89229D01*
X373705Y-90687D01*
X372930Y-91938D01*
X372000Y-92771D01*
X370759Y-93396D01*
X367660D01*
G01X403620Y-74646D02*
Y-124646D01*
G01X429970Y-93396D02*
X428730Y-93187D01*
X427645Y-92354D01*
X426715Y-91104D01*
X426094Y-89646D01*
X425785Y-87979D01*
Y-86312D01*
X426094Y-84646D01*
X426715Y-83187D01*
X427645Y-81937D01*
X428730Y-81104D01*
X429970Y-80896D01*
X431209Y-81104D01*
X432294Y-81937D01*
X433225Y-83187D01*
X433845Y-84646D01*
X434155Y-86312D01*
Y-87979D01*
X433845Y-89646D01*
X433225Y-91104D01*
X432294Y-92354D01*
X431209Y-93187D01*
X429970Y-93396D01*
G01X431209Y-90062D02*
X433070Y-93396D01*
G01X442370Y-80896D02*
Y-93396D01*
G01X438805Y-80896D02*
X445935D01*
G01X454770Y-93396D02*
Y-87771D01*
X451670Y-80896D01*
G01X457870D02*
X454770Y-87771D01*
G01X436170Y-118396D02*
Y-105896D01*
X434310Y-108396D01*
G01Y-118396D02*
X438030D01*
G01X448570D02*
X449655Y-118187D01*
X450894Y-117563D01*
X451670Y-116521D01*
X451980Y-115062D01*
X451670Y-113604D01*
X450740Y-112354D01*
X449344Y-111729D01*
X447795D01*
X446865Y-111312D01*
X446089Y-110271D01*
X445780Y-108813D01*
X446245Y-107354D01*
X447330Y-106312D01*
X448570Y-105896D01*
X449809Y-106312D01*
X450894Y-107354D01*
X451360Y-108813D01*
X451050Y-110271D01*
X450275Y-111312D01*
X449344Y-111729D01*
X447795D01*
X446400Y-112354D01*
X445470Y-113604D01*
X445160Y-115062D01*
X445470Y-116521D01*
X446245Y-117563D01*
X447485Y-118187D01*
X448570Y-118396D01*
M02*
