G04 ================== begin FILE IDENTIFICATION RECORD ==================*
G04 Layout Name:  LAYOUT.brd*
G04 Film Name:    SPTOP*
G04 File Format:  Gerber RS274X*
G04 File Origin:  Cadence Allegro 16.6-2015-S059*
G04 Origin Date:  Sun Dec 14 23:50:57 2025*
G04 *
G04 Layer:  VIA CLASS/PASTEMASK_TOP*
G04 Layer:  PIN/PASTEMASK_TOP*
G04 Layer:  PACKAGE GEOMETRY/PASTEMASK_TOP*
G04 Layer:  DRC ERROR CLASS/PASTEMASK_TOP*
G04 *
G04 Offset:    (0.0000 0.0000)*
G04 Mirror:    No*
G04 Mode:      Positive*
G04 Rotation:  0*
G04 FullContactRelief:  No*
G04 UndefLineWidth:     0.1000*
G04 ================== end FILE IDENTIFICATION RECORD ====================*
%FSLAX25Y25*MOIN*%
%IR0*IPPOS*OFA0.00000B0.00000*MIA0B0*SFA1.00000B1.00000*%
%ADD16R,.034724X.045*%
%ADD14R,.045X.034724*%
%ADD10R,.043189X.007638*%
%ADD11C,.03937*%
%ADD19R,.050394X.064764*%
%ADD13R,.045X.045*%
%ADD12R,.107992X.068386*%
%ADD15R,.068386X.107992*%
%ADD17R,.068386X.043189*%
%ADD18R,.198X.207*%
%LPD*%
G75*
G54D10*
X33819Y20906D03*
Y13006D03*
X80276Y124370D03*
Y132270D03*
G54D11*
X19685Y19685D03*
X137795Y137795D03*
G54D12*
X16850Y32598D03*
X16614Y69961D03*
X16850Y56198D03*
X16614Y93561D03*
G54D13*
X32717Y32559D03*
Y40959D03*
X31378Y69213D03*
Y77613D03*
X14567Y106220D03*
X22967D03*
X14055Y127835D03*
Y119435D03*
X60748Y32559D03*
Y40959D03*
X46732Y33110D03*
Y41510D03*
X68228Y117283D03*
Y125683D03*
X66772Y144055D03*
X86299Y12598D03*
X94699D03*
X78346Y69134D03*
X86746D03*
X72126Y100827D03*
Y92427D03*
X94213Y92323D03*
Y100723D03*
X84134Y100748D03*
Y92348D03*
X96890Y127047D03*
X75172Y144055D03*
X101535Y37638D03*
X109935D03*
X104528Y98071D03*
Y106471D03*
X105290Y127047D03*
G54D14*
X32294Y94809D03*
X27176Y123628D03*
X35276Y119528D03*
Y127728D03*
X40394Y90709D03*
Y98909D03*
X52254Y87919D03*
X60354Y83819D03*
Y92019D03*
X90354Y109871D03*
X98454Y113971D03*
X90354Y118071D03*
G54D15*
X49213Y13031D03*
X72813D03*
X100298Y141142D03*
X123898D03*
G54D16*
X64297Y62628D03*
X60197Y54528D03*
X68397D03*
X45832Y62391D03*
X41732Y54291D03*
X49932D03*
X81614Y46299D03*
X89814D03*
X85714Y54399D03*
X97430Y79370D03*
X101530Y71270D03*
X105630Y79370D03*
G54D17*
X49055Y109488D03*
X48976Y129606D03*
Y137506D03*
X49055Y117388D03*
X86535Y26260D03*
Y34160D03*
G54D18*
X134937Y21197D03*
X135417Y118055D03*
G54D19*
X125937Y50197D03*
X126417Y89055D03*
X143937Y50197D03*
X144417Y89055D03*
M02*
