G04 ================== begin FILE IDENTIFICATION RECORD ==================*
G04 Layout Name:  LAYOUT.brd*
G04 Film Name:    SSTOP*
G04 File Format:  Gerber RS274X*
G04 File Origin:  Cadence Allegro 16.6-2015-S059*
G04 Origin Date:  Sun Dec 14 23:50:57 2025*
G04 *
G04 Layer:  USER PART NUMBER/SILKSCREEN_TOP*
G04 Layer:  TOLERANCE/SILKSCREEN_TOP*
G04 Layer:  REF DES/SILKSCREEN_TOP*
G04 Layer:  PACKAGE GEOMETRY/SILKSCREEN_TOP*
G04 Layer:  DEVICE TYPE/SILKSCREEN_TOP*
G04 Layer:  COMPONENT VALUE/SILKSCREEN_TOP*
G04 Layer:  BOARD GEOMETRY/SILKSCREEN_TOP*
G04 *
G04 Offset:    (0.0000 0.0000)*
G04 Mirror:    No*
G04 Mode:      Positive*
G04 Rotation:  0*
G04 FullContactRelief:  No*
G04 UndefLineWidth:     0.1000*
G04 ================== end FILE IDENTIFICATION RECORD ====================*
%FSLAX25Y25*MOIN*%
%IR0*IPPOS*OFA0.00000B0.00000*MIA0B0*SFA1.00000B1.00000*%
%ADD10C,.003937*%
%ADD11C,.005906*%
%ADD12C,.006*%
G75*
%LPD*%
G75*
G54D10*
G01X7141Y148819D02*
X7808Y151319D01*
X8474Y148819D01*
G01X8235Y149694D02*
X7381D01*
G01X9208Y148819D02*
Y150485D01*
G01Y150027D02*
X9288Y150235D01*
X9421Y150402D01*
X9608Y150485D01*
X9794Y150402D01*
X9928Y150235D01*
X10008Y150027D01*
Y148819D01*
G01Y150027D02*
X10088Y150235D01*
X10221Y150402D01*
X10408Y150485D01*
X10594Y150402D01*
X10728Y150235D01*
X10808Y149985D01*
Y148819D01*
G01X11728D02*
Y151319D01*
G01Y150069D02*
X11861Y150319D01*
X12021Y150444D01*
X12181Y150485D01*
X12421Y150402D01*
X12581Y150235D01*
X12688Y149944D01*
Y149611D01*
X12635Y149277D01*
X12528Y149027D01*
X12341Y148861D01*
X12181Y148819D01*
X12021Y148861D01*
X11861Y148985D01*
X11728Y149194D01*
G01X14035Y148819D02*
Y150485D01*
G01Y150152D02*
X14168Y150319D01*
X14301Y150444D01*
X14488Y150485D01*
X14621Y150444D01*
X14781Y150319D01*
G01X16608Y148819D02*
X16448Y148861D01*
X16288Y149027D01*
X16181Y149319D01*
X16128Y149652D01*
X16181Y149985D01*
X16288Y150277D01*
X16448Y150444D01*
X16608Y150485D01*
X16768Y150444D01*
X16928Y150277D01*
X17035Y149985D01*
X17061Y149652D01*
X17035Y149319D01*
X16928Y149027D01*
X16768Y148861D01*
X16608Y148819D01*
G01X18408Y150485D02*
X19208D01*
X18408Y148819D01*
X19208D01*
G01X21008Y150485D02*
Y148819D01*
G01Y151152D02*
X20955Y151194D01*
Y151277D01*
X21008Y151319D01*
X21061Y151277D01*
Y151194D01*
X21008Y151152D01*
G01X22808Y149944D02*
X23661D01*
X23581Y150235D01*
X23448Y150402D01*
X23261Y150485D01*
X23074Y150444D01*
X22915Y150319D01*
X22808Y150027D01*
X22754Y149777D01*
Y149527D01*
X22808Y149277D01*
X22941Y149027D01*
X23101Y148861D01*
X23288Y148819D01*
X23474Y148902D01*
X23661Y149152D01*
G01X27074Y148819D02*
Y151319D01*
X27741D01*
X27955Y151194D01*
X28088Y151027D01*
X28141Y150694D01*
X28088Y150361D01*
X27928Y150152D01*
X27741Y150027D01*
X27074D01*
G01X27741D02*
X28141Y148819D01*
G01X29808D02*
X29648Y148861D01*
X29488Y149027D01*
X29381Y149319D01*
X29328Y149652D01*
X29381Y149985D01*
X29488Y150277D01*
X29648Y150444D01*
X29808Y150485D01*
X29968Y150444D01*
X30128Y150277D01*
X30235Y149985D01*
X30261Y149652D01*
X30235Y149319D01*
X30128Y149027D01*
X29968Y148861D01*
X29808Y148819D01*
G01X31528D02*
Y151319D01*
G01Y150069D02*
X31661Y150319D01*
X31821Y150444D01*
X31981Y150485D01*
X32221Y150402D01*
X32381Y150235D01*
X32488Y149944D01*
Y149611D01*
X32435Y149277D01*
X32328Y149027D01*
X32141Y148861D01*
X31981Y148819D01*
X31821Y148861D01*
X31661Y148985D01*
X31528Y149194D01*
G01X33808Y149944D02*
X34661D01*
X34581Y150235D01*
X34448Y150402D01*
X34261Y150485D01*
X34074Y150444D01*
X33915Y150319D01*
X33808Y150027D01*
X33754Y149777D01*
Y149527D01*
X33808Y149277D01*
X33941Y149027D01*
X34101Y148861D01*
X34288Y148819D01*
X34474Y148902D01*
X34661Y149152D01*
G01X36035Y148819D02*
Y150485D01*
G01Y150152D02*
X36168Y150319D01*
X36301Y150444D01*
X36488Y150485D01*
X36621Y150444D01*
X36781Y150319D01*
G01X38608Y151319D02*
Y148819D01*
G01X38235Y150485D02*
X38981D01*
G01X41288Y148819D02*
Y150485D01*
G01Y150194D02*
X41181Y150361D01*
X41021Y150444D01*
X40835Y150485D01*
X40648Y150402D01*
X40488Y150235D01*
X40381Y149985D01*
X40328Y149652D01*
X40381Y149319D01*
X40488Y149069D01*
X40648Y148902D01*
X40835Y148819D01*
X41021Y148861D01*
X41181Y148985D01*
X41288Y149152D01*
G01X45528Y148819D02*
Y151319D01*
X44541Y149527D01*
X45874D01*
G01X46821Y149319D02*
X46981Y149027D01*
X47194Y148861D01*
X47435Y148819D01*
X47648Y148861D01*
X47861Y149069D01*
X47994Y149319D01*
X48021Y149569D01*
X47968Y149861D01*
X47781Y150069D01*
X47594Y150152D01*
X47355D01*
G01X47594D02*
X47755Y150277D01*
X47888Y150485D01*
X47941Y150735D01*
X47888Y150985D01*
X47755Y151194D01*
X47515Y151319D01*
X47274Y151277D01*
X47035Y151111D01*
G01X49928Y148819D02*
Y151319D01*
X48941Y149527D01*
X50274D01*
G01X51221Y148819D02*
Y151319D01*
X51755D01*
X51968Y151194D01*
X52128Y151027D01*
X52261Y150777D01*
X52368Y150485D01*
X52394Y150069D01*
X52368Y149652D01*
X52261Y149361D01*
X52128Y149111D01*
X51968Y148944D01*
X51755Y148819D01*
X51221D01*
G01X8337Y143386D02*
Y145886D01*
X8978D01*
X9191Y145761D01*
X9351Y145469D01*
X9404Y145136D01*
X9351Y144802D01*
X9218Y144552D01*
X8978Y144428D01*
X8337D01*
G01X10537Y143386D02*
Y145886D01*
X11204D01*
X11418Y145761D01*
X11551Y145594D01*
X11604Y145261D01*
X11551Y144928D01*
X11391Y144719D01*
X11204Y144594D01*
X10537D01*
G01X11204D02*
X11604Y143386D01*
G01X12924Y144219D02*
X13618D01*
G01X16057Y145678D02*
X15898Y145802D01*
X15711Y145886D01*
X15498D01*
X15257Y145761D01*
X15071Y145552D01*
X14937Y145302D01*
X14831Y144886D01*
X14804Y144511D01*
X14857Y144136D01*
X14937Y143886D01*
X15098Y143636D01*
X15284Y143469D01*
X15471Y143386D01*
X15657D01*
X15844Y143469D01*
X16004Y143594D01*
X16137Y143761D01*
G01X18204Y143386D02*
X17137D01*
Y145886D01*
X18204D01*
G01X17778Y144678D02*
X17137D01*
G01X19364Y143386D02*
Y145886D01*
X20378D01*
G01X20004Y144678D02*
X19364D01*
G01X23764Y145469D02*
X23924Y145719D01*
X24111Y145844D01*
X24324Y145886D01*
X24591Y145802D01*
X24778Y145594D01*
X24831Y145344D01*
X24804Y145094D01*
X24698Y144886D01*
X24164Y144469D01*
X23924Y144178D01*
X23764Y143761D01*
X23711Y143386D01*
X24831D01*
G01X26471Y145886D02*
X26257Y145802D01*
X26098Y145594D01*
X25991Y145344D01*
X25911Y145011D01*
X25884Y144636D01*
X25911Y144261D01*
X25991Y143928D01*
X26098Y143678D01*
X26257Y143469D01*
X26471Y143386D01*
X26684Y143469D01*
X26844Y143678D01*
X26951Y143928D01*
X27031Y144261D01*
X27057Y144636D01*
X27031Y145011D01*
X26951Y145344D01*
X26844Y145594D01*
X26684Y145802D01*
X26471Y145886D01*
G01X28164Y145469D02*
X28324Y145719D01*
X28511Y145844D01*
X28724Y145886D01*
X28991Y145802D01*
X29178Y145594D01*
X29231Y145344D01*
X29204Y145094D01*
X29098Y144886D01*
X28564Y144469D01*
X28324Y144178D01*
X28164Y143761D01*
X28111Y143386D01*
X29231D01*
G01X30284Y143761D02*
X30444Y143552D01*
X30631Y143428D01*
X30871Y143386D01*
X31111Y143469D01*
X31298Y143636D01*
X31431Y143928D01*
X31457Y144261D01*
X31404Y144594D01*
X31271Y144802D01*
X31084Y144969D01*
X30898Y145011D01*
X30711Y144969D01*
X30471Y144802D01*
X30551Y145886D01*
X31271D01*
G01X32724Y144219D02*
X33418D01*
G01X34764Y145469D02*
X34924Y145719D01*
X35111Y145844D01*
X35324Y145886D01*
X35591Y145802D01*
X35778Y145594D01*
X35831Y145344D01*
X35804Y145094D01*
X35698Y144886D01*
X35164Y144469D01*
X34924Y144178D01*
X34764Y143761D01*
X34711Y143386D01*
X35831D01*
G01X37471Y145886D02*
X37257Y145802D01*
X37098Y145594D01*
X36991Y145344D01*
X36911Y145011D01*
X36884Y144636D01*
X36911Y144261D01*
X36991Y143928D01*
X37098Y143678D01*
X37257Y143469D01*
X37471Y143386D01*
X37684Y143469D01*
X37844Y143678D01*
X37951Y143928D01*
X38031Y144261D01*
X38057Y144636D01*
X38031Y145011D01*
X37951Y145344D01*
X37844Y145594D01*
X37684Y145802D01*
X37471Y145886D01*
G01X39164Y145469D02*
X39324Y145719D01*
X39511Y145844D01*
X39724Y145886D01*
X39991Y145802D01*
X40178Y145594D01*
X40231Y145344D01*
X40204Y145094D01*
X40098Y144886D01*
X39564Y144469D01*
X39324Y144178D01*
X39164Y143761D01*
X39111Y143386D01*
X40231D01*
G01X41364Y144428D02*
X41551Y144719D01*
X41711Y144886D01*
X41924Y144969D01*
X42111Y144886D01*
X42244Y144719D01*
X42351Y144469D01*
X42378Y144178D01*
X42351Y143928D01*
X42244Y143678D01*
X42084Y143469D01*
X41898Y143386D01*
X41684Y143469D01*
X41498Y143719D01*
X41391Y144094D01*
X41364Y144511D01*
X41417Y145052D01*
X41498Y145344D01*
X41631Y145636D01*
X41818Y145844D01*
X42004Y145886D01*
X42191Y145802D01*
X42324Y145594D01*
G01X33594Y88809D02*
Y100809D01*
X39194D01*
Y88809D01*
X33594D01*
G01X28476Y117628D02*
Y129628D01*
X34076D01*
Y117628D01*
X28476D01*
G01X58297Y61328D02*
X70297D01*
Y55728D01*
X58297D01*
Y61328D01*
G01X39832Y61091D02*
X51832D01*
Y55491D01*
X39832D01*
Y61091D01*
G01X53554Y81919D02*
Y93919D01*
X59154D01*
Y81919D01*
X53554D01*
G01X79714Y53099D02*
X91714D01*
Y47499D01*
X79714D01*
Y53099D01*
G01X107530Y72570D02*
X95530D01*
Y78170D01*
X107530D01*
Y72570D01*
G01X97154Y119971D02*
Y107971D01*
X91554D01*
Y119971D01*
X97154D01*
G54D11*
G01X6037Y101654D02*
X6201Y101299D01*
X6398Y101063D01*
X6627Y100945D01*
X6890Y101063D01*
X7087Y101299D01*
X7283Y101654D01*
X7349Y102126D01*
Y104488D01*
G01X9252Y100945D02*
Y104488D01*
X8858Y103780D01*
G01Y100945D02*
X9646D01*
G01X25066Y11969D02*
Y15512D01*
X25722D01*
X25984Y15335D01*
X26181Y15098D01*
X26345Y14744D01*
X26476Y14331D01*
X26509Y13740D01*
X26476Y13150D01*
X26345Y12736D01*
X26181Y12382D01*
X25984Y12146D01*
X25722Y11969D01*
X25066D01*
G01X28346D02*
Y15512D01*
X27953Y14803D01*
G01Y11969D02*
X28740D01*
G01X8753Y22559D02*
X8917Y22205D01*
X9114Y21969D01*
X9344Y21850D01*
X9606Y21969D01*
X9803Y22205D01*
X10000Y22559D01*
X10066Y23031D01*
Y25394D01*
G01X11345Y24803D02*
X11542Y25157D01*
X11772Y25335D01*
X12034Y25394D01*
X12362Y25276D01*
X12592Y24980D01*
X12657Y24626D01*
X12625Y24272D01*
X12493Y23976D01*
X11837Y23386D01*
X11542Y22972D01*
X11345Y22382D01*
X11280Y21850D01*
X12657D01*
G01X25249Y45906D02*
Y49449D01*
X26070D01*
X26332Y49272D01*
X26496Y49035D01*
X26562Y48563D01*
X26496Y48091D01*
X26299Y47795D01*
X26070Y47618D01*
X25249D01*
G01X26070D02*
X26562Y45906D01*
G01X28465D02*
Y49449D01*
X28071Y48740D01*
G01Y45906D02*
X28858D01*
G01X31417D02*
Y49449D01*
X30204Y46909D01*
X31844D01*
G01X35578Y102209D02*
X35315Y102268D01*
X35086Y102504D01*
X34889Y102858D01*
X34758Y103272D01*
X34692Y103744D01*
Y104217D01*
X34758Y104689D01*
X34889Y105102D01*
X35086Y105457D01*
X35315Y105693D01*
X35578Y105752D01*
X35841Y105693D01*
X36070Y105457D01*
X36267Y105102D01*
X36398Y104689D01*
X36464Y104217D01*
Y103744D01*
X36398Y103272D01*
X36267Y102858D01*
X36070Y102504D01*
X35841Y102268D01*
X35578Y102209D01*
G01X35841Y103154D02*
X36234Y102209D01*
G01X38137D02*
Y105752D01*
X37743Y105043D01*
G01Y102209D02*
X38531D01*
G01X10795Y93670D02*
Y97214D01*
X11615D01*
X11878Y97037D01*
X12042Y96800D01*
X12107Y96328D01*
X12042Y95856D01*
X11845Y95560D01*
X11615Y95383D01*
X10795D01*
G01X11615D02*
X12107Y93670D01*
G01X14010D02*
Y97214D01*
X13617Y96505D01*
G01Y93670D02*
X14404D01*
G01X16569D02*
Y97214D01*
X16176Y96505D01*
G01Y93670D02*
X16963D01*
G01X22087Y114016D02*
X21824Y114075D01*
X21594Y114311D01*
X21398Y114665D01*
X21267Y115079D01*
X21201Y115551D01*
Y116024D01*
X21267Y116496D01*
X21398Y116909D01*
X21594Y117264D01*
X21824Y117500D01*
X22087Y117559D01*
X22349Y117500D01*
X22579Y117264D01*
X22776Y116909D01*
X22907Y116496D01*
X22972Y116024D01*
Y115551D01*
X22907Y115079D01*
X22776Y114665D01*
X22579Y114311D01*
X22349Y114075D01*
X22087Y114016D01*
G01X22349Y114961D02*
X22743Y114016D01*
G01X23924Y114547D02*
X24121Y114252D01*
X24350Y114075D01*
X24646Y114016D01*
X24941Y114134D01*
X25170Y114370D01*
X25335Y114783D01*
X25367Y115256D01*
X25302Y115728D01*
X25138Y116024D01*
X24908Y116260D01*
X24678Y116319D01*
X24449Y116260D01*
X24154Y116024D01*
X24252Y117559D01*
X25138D01*
G01X12336Y132953D02*
Y136496D01*
X13156D01*
X13419Y136319D01*
X13583Y136083D01*
X13648Y135610D01*
X13583Y135138D01*
X13386Y134843D01*
X13156Y134665D01*
X12336D01*
G01X13156D02*
X13648Y132953D01*
G01X14830Y133484D02*
X15026Y133189D01*
X15256Y133012D01*
X15551Y132953D01*
X15846Y133071D01*
X16076Y133307D01*
X16240Y133720D01*
X16273Y134193D01*
X16207Y134665D01*
X16043Y134961D01*
X15814Y135197D01*
X15584Y135256D01*
X15354Y135197D01*
X15059Y134961D01*
X15157Y136496D01*
X16043D01*
G01X38950Y15118D02*
X39114Y14764D01*
X39311Y14528D01*
X39541Y14409D01*
X39803Y14528D01*
X40000Y14764D01*
X40197Y15118D01*
X40263Y15591D01*
Y17953D01*
G01X41444Y15118D02*
X41641Y14705D01*
X41903Y14469D01*
X42198Y14409D01*
X42461Y14469D01*
X42723Y14764D01*
X42887Y15118D01*
X42920Y15472D01*
X42854Y15886D01*
X42625Y16181D01*
X42395Y16299D01*
X42100D01*
G01X42395D02*
X42592Y16476D01*
X42756Y16772D01*
X42822Y17126D01*
X42756Y17480D01*
X42592Y17776D01*
X42296Y17953D01*
X42001Y17894D01*
X41706Y17657D01*
G01X63661Y46693D02*
X63399Y46752D01*
X63169Y46988D01*
X62972Y47343D01*
X62841Y47756D01*
X62776Y48228D01*
Y48701D01*
X62841Y49173D01*
X62972Y49587D01*
X63169Y49941D01*
X63399Y50177D01*
X63661Y50236D01*
X63924Y50177D01*
X64154Y49941D01*
X64350Y49587D01*
X64481Y49173D01*
X64547Y48701D01*
Y48228D01*
X64481Y47756D01*
X64350Y47343D01*
X64154Y46988D01*
X63924Y46752D01*
X63661Y46693D01*
G01X63924Y47638D02*
X64318Y46693D01*
G01X65499Y47402D02*
X65696Y46988D01*
X65958Y46752D01*
X66253Y46693D01*
X66516Y46752D01*
X66778Y47047D01*
X66942Y47402D01*
X66975Y47756D01*
X66909Y48169D01*
X66680Y48465D01*
X66450Y48583D01*
X66155D01*
G01X66450D02*
X66647Y48760D01*
X66811Y49055D01*
X66877Y49409D01*
X66811Y49764D01*
X66647Y50059D01*
X66352Y50236D01*
X66056Y50177D01*
X65761Y49941D01*
G01X55446Y23268D02*
Y26811D01*
X56267D01*
X56529Y26634D01*
X56693Y26398D01*
X56759Y25925D01*
X56693Y25453D01*
X56496Y25157D01*
X56267Y24980D01*
X55446D01*
G01X56267D02*
X56759Y23268D01*
G01X58104Y23681D02*
X58333Y23386D01*
X58596Y23268D01*
X58858Y23386D01*
X59088Y23740D01*
X59252Y24272D01*
X59318Y24803D01*
Y25453D01*
X59252Y25984D01*
X59088Y26457D01*
X58891Y26693D01*
X58661Y26811D01*
X58399Y26693D01*
X58202Y26457D01*
X58071Y26102D01*
X58005Y25630D01*
X58071Y25217D01*
X58235Y24803D01*
X58432Y24567D01*
X58661Y24508D01*
X58924Y24626D01*
X59121Y24921D01*
X59318Y25453D01*
G01X44698Y23898D02*
Y27441D01*
X45519D01*
X45781Y27264D01*
X45945Y27028D01*
X46011Y26555D01*
X45945Y26083D01*
X45748Y25787D01*
X45519Y25610D01*
X44698D01*
G01X45519D02*
X46011Y23898D01*
G01X47913D02*
Y27441D01*
X47520Y26732D01*
G01Y23898D02*
X48307D01*
G01X50472Y27441D02*
X50210Y27323D01*
X50013Y27028D01*
X49882Y26673D01*
X49783Y26201D01*
X49751Y25669D01*
X49783Y25138D01*
X49882Y24665D01*
X50013Y24311D01*
X50210Y24016D01*
X50472Y23898D01*
X50735Y24016D01*
X50932Y24311D01*
X51063Y24665D01*
X51161Y25138D01*
X51194Y25669D01*
X51161Y26201D01*
X51063Y26673D01*
X50932Y27028D01*
X50735Y27323D01*
X50472Y27441D01*
G01X53819Y57835D02*
X53556Y57894D01*
X53327Y58130D01*
X53130Y58484D01*
X52999Y58898D01*
X52933Y59370D01*
Y59843D01*
X52999Y60315D01*
X53130Y60728D01*
X53327Y61083D01*
X53556Y61319D01*
X53819Y61378D01*
X54081Y61319D01*
X54311Y61083D01*
X54508Y60728D01*
X54639Y60315D01*
X54705Y59843D01*
Y59370D01*
X54639Y58898D01*
X54508Y58484D01*
X54311Y58130D01*
X54081Y57894D01*
X53819Y57835D01*
G01X54081Y58780D02*
X54475Y57835D01*
G01X56772D02*
Y61378D01*
X55558Y58839D01*
X57198D01*
G01X43928Y65441D02*
X40385D01*
Y66261D01*
X40562Y66523D01*
X40798Y66687D01*
X41270Y66753D01*
X41743Y66687D01*
X42038Y66491D01*
X42215Y66261D01*
Y65441D01*
G01Y66261D02*
X43928Y66753D01*
G01Y68656D02*
X40385D01*
X41093Y68262D01*
G01X43928D02*
Y69050D01*
G01X40975Y70592D02*
X40621Y70789D01*
X40444Y71018D01*
X40385Y71281D01*
X40503Y71609D01*
X40798Y71838D01*
X41152Y71904D01*
X41507Y71871D01*
X41802Y71740D01*
X42393Y71084D01*
X42806Y70789D01*
X43396Y70592D01*
X43928Y70526D01*
Y71904D01*
G01X49094Y92756D02*
X48832Y92815D01*
X48602Y93051D01*
X48406Y93406D01*
X48274Y93819D01*
X48209Y94291D01*
Y94764D01*
X48274Y95236D01*
X48406Y95650D01*
X48602Y96004D01*
X48832Y96240D01*
X49094Y96299D01*
X49357Y96240D01*
X49587Y96004D01*
X49783Y95650D01*
X49915Y95236D01*
X49980Y94764D01*
Y94291D01*
X49915Y93819D01*
X49783Y93406D01*
X49587Y93051D01*
X49357Y92815D01*
X49094Y92756D01*
G01X49357Y93701D02*
X49751Y92756D01*
G01X51030Y95709D02*
X51227Y96063D01*
X51457Y96240D01*
X51719Y96299D01*
X52047Y96181D01*
X52277Y95886D01*
X52343Y95531D01*
X52310Y95177D01*
X52178Y94882D01*
X51522Y94291D01*
X51227Y93878D01*
X51030Y93287D01*
X50965Y92756D01*
X52343D01*
G01X63123Y99724D02*
Y103268D01*
X63944D01*
X64206Y103091D01*
X64370Y102854D01*
X64436Y102382D01*
X64370Y101909D01*
X64173Y101614D01*
X63944Y101437D01*
X63123D01*
G01X63944D02*
X64436Y99724D01*
G01X66273D02*
X66339Y100492D01*
X66437Y101142D01*
X66568Y101732D01*
X66732Y102382D01*
X66995Y103268D01*
X65682D01*
G01X61863Y108583D02*
Y112126D01*
X62684D01*
X62946Y111949D01*
X63110Y111713D01*
X63176Y111240D01*
X63110Y110768D01*
X62913Y110472D01*
X62684Y110295D01*
X61863D01*
G01X62684D02*
X63176Y108583D01*
G01X65079D02*
Y112126D01*
X64685Y111417D01*
G01Y108583D02*
X65472D01*
G01X66916Y109291D02*
X67113Y108878D01*
X67375Y108642D01*
X67670Y108583D01*
X67933Y108642D01*
X68196Y108937D01*
X68359Y109291D01*
X68393Y109646D01*
X68327Y110059D01*
X68097Y110354D01*
X67867Y110472D01*
X67572D01*
G01X67867D02*
X68064Y110650D01*
X68228Y110945D01*
X68294Y111299D01*
X68228Y111654D01*
X68064Y111949D01*
X67769Y112126D01*
X67474Y112067D01*
X67178Y111831D01*
G01X56404Y106024D02*
Y103484D01*
X56535Y102953D01*
X56798Y102598D01*
X57126Y102480D01*
X57454Y102598D01*
X57717Y102953D01*
X57848Y103484D01*
Y106024D01*
G01X59062Y105433D02*
X59259Y105787D01*
X59488Y105965D01*
X59751Y106024D01*
X60079Y105906D01*
X60308Y105610D01*
X60374Y105256D01*
X60341Y104902D01*
X60210Y104606D01*
X59554Y104016D01*
X59259Y103602D01*
X59062Y103012D01*
X58996Y102480D01*
X60374D01*
G01X51050Y146693D02*
Y144154D01*
X51181Y143622D01*
X51444Y143268D01*
X51772Y143150D01*
X52100Y143268D01*
X52362Y143622D01*
X52493Y144154D01*
Y146693D01*
G01X54331Y143150D02*
Y146693D01*
X53937Y145984D01*
G01Y143150D02*
X54724D01*
G01X92848Y17756D02*
Y21299D01*
X93668D01*
X93930Y21122D01*
X94094Y20886D01*
X94160Y20413D01*
X94094Y19941D01*
X93898Y19646D01*
X93668Y19469D01*
X92848D01*
G01X93668D02*
X94160Y17756D01*
G01X95374Y18228D02*
X95637Y17933D01*
X95932Y17756D01*
X96194D01*
X96457Y17933D01*
X96654Y18228D01*
X96752Y18642D01*
X96686Y19055D01*
X96522Y19409D01*
X96227Y19646D01*
X95833Y19764D01*
X95604Y20000D01*
X95505Y20413D01*
X95571Y20827D01*
X95735Y21122D01*
X95965Y21299D01*
X96194D01*
X96424Y21181D01*
X96621Y20886D01*
G01X97999Y20709D02*
X98196Y21063D01*
X98425Y21240D01*
X98688Y21299D01*
X99016Y21181D01*
X99245Y20886D01*
X99311Y20531D01*
X99278Y20177D01*
X99147Y19882D01*
X98491Y19291D01*
X98196Y18878D01*
X97999Y18287D01*
X97933Y17756D01*
X99311D01*
G01X95039Y48465D02*
X94777Y48524D01*
X94547Y48760D01*
X94350Y49114D01*
X94219Y49528D01*
X94154Y50000D01*
Y50472D01*
X94219Y50945D01*
X94350Y51358D01*
X94547Y51713D01*
X94777Y51949D01*
X95039Y52008D01*
X95302Y51949D01*
X95531Y51713D01*
X95728Y51358D01*
X95859Y50945D01*
X95925Y50472D01*
Y50000D01*
X95859Y49528D01*
X95728Y49114D01*
X95531Y48760D01*
X95302Y48524D01*
X95039Y48465D01*
G01X95302Y49409D02*
X95696Y48465D01*
G01X96975Y49941D02*
X97205Y50354D01*
X97402Y50591D01*
X97664Y50709D01*
X97894Y50591D01*
X98058Y50354D01*
X98189Y50000D01*
X98222Y49587D01*
X98189Y49232D01*
X98058Y48878D01*
X97861Y48583D01*
X97631Y48465D01*
X97369Y48583D01*
X97139Y48937D01*
X97008Y49469D01*
X96975Y50059D01*
X97041Y50827D01*
X97139Y51240D01*
X97303Y51654D01*
X97533Y51949D01*
X97763Y52008D01*
X97992Y51890D01*
X98156Y51594D01*
G01X76129Y30000D02*
Y27461D01*
X76260Y26929D01*
X76522Y26575D01*
X76850Y26457D01*
X77178Y26575D01*
X77441Y26929D01*
X77572Y27461D01*
Y30000D01*
G01X78688Y27165D02*
X78885Y26752D01*
X79147Y26516D01*
X79442Y26457D01*
X79705Y26516D01*
X79967Y26811D01*
X80131Y27165D01*
X80164Y27520D01*
X80098Y27933D01*
X79869Y28228D01*
X79639Y28346D01*
X79344D01*
G01X79639D02*
X79836Y28524D01*
X80000Y28819D01*
X80066Y29173D01*
X80000Y29528D01*
X79836Y29823D01*
X79541Y30000D01*
X79245Y29941D01*
X78950Y29705D01*
G01X75952Y59832D02*
X75756Y60009D01*
X75526Y60127D01*
X75263D01*
X74968Y59950D01*
X74739Y59655D01*
X74574Y59300D01*
X74443Y58710D01*
X74411Y58178D01*
X74476Y57647D01*
X74574Y57293D01*
X74771Y56938D01*
X75001Y56702D01*
X75231Y56584D01*
X75460D01*
X75690Y56702D01*
X75887Y56879D01*
X76051Y57115D01*
G01X77790Y56584D02*
Y60127D01*
X77396Y59419D01*
G01Y56584D02*
X78183D01*
G01X89265Y83543D02*
Y87087D01*
X90085D01*
X90348Y86909D01*
X90512Y86673D01*
X90578Y86201D01*
X90512Y85728D01*
X90315Y85433D01*
X90085Y85256D01*
X89265D01*
G01X90085D02*
X90578Y83543D01*
G01X92480D02*
X92710Y83602D01*
X92972Y83780D01*
X93137Y84075D01*
X93202Y84488D01*
X93137Y84902D01*
X92940Y85256D01*
X92644Y85433D01*
X92316D01*
X92119Y85551D01*
X91956Y85846D01*
X91890Y86260D01*
X91988Y86673D01*
X92218Y86969D01*
X92480Y87087D01*
X92743Y86969D01*
X92972Y86673D01*
X93071Y86260D01*
X93005Y85846D01*
X92841Y85551D01*
X92644Y85433D01*
X92316D01*
X92021Y85256D01*
X91824Y84902D01*
X91759Y84488D01*
X91824Y84075D01*
X91988Y83780D01*
X92251Y83602D01*
X92480Y83543D01*
G01X76706Y105000D02*
Y108543D01*
X77526D01*
X77789Y108366D01*
X77953Y108130D01*
X78019Y107657D01*
X77953Y107185D01*
X77756Y106890D01*
X77526Y106713D01*
X76706D01*
G01X77526D02*
X78019Y105000D01*
G01X79298Y106476D02*
X79528Y106890D01*
X79724Y107126D01*
X79987Y107244D01*
X80217Y107126D01*
X80381Y106890D01*
X80512Y106535D01*
X80544Y106122D01*
X80512Y105768D01*
X80381Y105413D01*
X80184Y105118D01*
X79954Y105000D01*
X79692Y105118D01*
X79462Y105472D01*
X79331Y106004D01*
X79298Y106594D01*
X79363Y107362D01*
X79462Y107776D01*
X79626Y108189D01*
X79856Y108484D01*
X80085Y108543D01*
X80315Y108425D01*
X80479Y108130D01*
G01X81995Y137480D02*
Y141024D01*
X82651D01*
X82913Y140846D01*
X83110Y140610D01*
X83274Y140256D01*
X83406Y139843D01*
X83438Y139252D01*
X83406Y138661D01*
X83274Y138248D01*
X83110Y137894D01*
X82913Y137657D01*
X82651Y137480D01*
X81995D01*
G01X84652Y140433D02*
X84849Y140787D01*
X85079Y140965D01*
X85341Y141024D01*
X85669Y140906D01*
X85899Y140610D01*
X85965Y140256D01*
X85932Y139902D01*
X85800Y139606D01*
X85144Y139016D01*
X84849Y138602D01*
X84652Y138012D01*
X84587Y137480D01*
X85965D01*
G01X82205Y112795D02*
X81942Y112854D01*
X81713Y113091D01*
X81516Y113445D01*
X81385Y113858D01*
X81319Y114331D01*
Y114803D01*
X81385Y115276D01*
X81516Y115689D01*
X81713Y116043D01*
X81942Y116280D01*
X82205Y116339D01*
X82467Y116280D01*
X82697Y116043D01*
X82894Y115689D01*
X83025Y115276D01*
X83091Y114803D01*
Y114331D01*
X83025Y113858D01*
X82894Y113445D01*
X82697Y113091D01*
X82467Y112854D01*
X82205Y112795D01*
G01X82467Y113740D02*
X82861Y112795D01*
G01X84698D02*
X84764Y113563D01*
X84862Y114213D01*
X84993Y114803D01*
X85157Y115453D01*
X85420Y116339D01*
X84107D01*
G01X81312Y146732D02*
Y150276D01*
X82133D01*
X82395Y150098D01*
X82559Y149862D01*
X82625Y149390D01*
X82559Y148917D01*
X82362Y148622D01*
X82133Y148445D01*
X81312D01*
G01X82133D02*
X82625Y146732D01*
G01X83904Y149685D02*
X84101Y150039D01*
X84331Y150217D01*
X84593Y150276D01*
X84921Y150157D01*
X85151Y149862D01*
X85217Y149508D01*
X85184Y149154D01*
X85052Y148858D01*
X84396Y148268D01*
X84101Y147854D01*
X83904Y147264D01*
X83839Y146732D01*
X85217D01*
G01X102926Y43346D02*
Y46890D01*
X103747D01*
X104009Y46713D01*
X104173Y46476D01*
X104239Y46004D01*
X104173Y45531D01*
X103976Y45236D01*
X103747Y45059D01*
X102926D01*
G01X103747D02*
X104239Y43346D01*
G01X105453Y43819D02*
X105715Y43524D01*
X106011Y43346D01*
X106273D01*
X106535Y43524D01*
X106732Y43819D01*
X106831Y44232D01*
X106765Y44646D01*
X106601Y45000D01*
X106306Y45236D01*
X105912Y45354D01*
X105682Y45591D01*
X105584Y46004D01*
X105650Y46417D01*
X105814Y46713D01*
X106043Y46890D01*
X106273D01*
X106503Y46772D01*
X106700Y46476D01*
G01X108701Y43346D02*
Y46890D01*
X108307Y46181D01*
G01Y43346D02*
X109094D01*
G01X110197Y68425D02*
X110459Y68366D01*
X110689Y68130D01*
X110886Y67776D01*
X111017Y67362D01*
X111083Y66890D01*
Y66417D01*
X111017Y65945D01*
X110886Y65531D01*
X110689Y65177D01*
X110459Y64941D01*
X110197Y64882D01*
X109934Y64941D01*
X109705Y65177D01*
X109508Y65531D01*
X109377Y65945D01*
X109311Y66417D01*
Y66890D01*
X109377Y67362D01*
X109508Y67776D01*
X109705Y68130D01*
X109934Y68366D01*
X110197Y68425D01*
G01X109934Y67480D02*
X109541Y68425D01*
G01X107638D02*
Y64882D01*
X108031Y65591D01*
G01Y68425D02*
X107244D01*
G01X105079Y64882D02*
X105341Y65000D01*
X105538Y65295D01*
X105669Y65650D01*
X105768Y66122D01*
X105800Y66654D01*
X105768Y67185D01*
X105669Y67657D01*
X105538Y68012D01*
X105341Y68307D01*
X105079Y68425D01*
X104816Y68307D01*
X104619Y68012D01*
X104488Y67657D01*
X104390Y67185D01*
X104357Y66654D01*
X104390Y66122D01*
X104488Y65650D01*
X104619Y65295D01*
X104816Y65000D01*
X105079Y64882D01*
G01X113228Y108911D02*
X109685D01*
Y109731D01*
X109862Y109993D01*
X110098Y110157D01*
X110571Y110223D01*
X111043Y110157D01*
X111339Y109961D01*
X111516Y109731D01*
Y108911D01*
G01Y109731D02*
X113228Y110223D01*
G01Y112520D02*
X109685D01*
X112224Y111306D01*
Y112946D01*
G01X102572Y118307D02*
Y121850D01*
X103393D01*
X103655Y121673D01*
X103819Y121437D01*
X103885Y120965D01*
X103819Y120492D01*
X103622Y120197D01*
X103393Y120020D01*
X102572D01*
G01X103393D02*
X103885Y118307D01*
G01X105787D02*
Y121850D01*
X105394Y121142D01*
G01Y118307D02*
X106181D01*
G01X107625Y118839D02*
X107822Y118543D01*
X108051Y118366D01*
X108346Y118307D01*
X108642Y118425D01*
X108871Y118661D01*
X109035Y119075D01*
X109068Y119547D01*
X109003Y120020D01*
X108839Y120315D01*
X108609Y120551D01*
X108379Y120610D01*
X108150Y120551D01*
X107854Y120315D01*
X107953Y121850D01*
X108839D01*
G01X134055Y57323D02*
X133793Y57382D01*
X133563Y57618D01*
X133366Y57972D01*
X133235Y58386D01*
X133169Y58858D01*
Y59331D01*
X133235Y59803D01*
X133366Y60217D01*
X133563Y60571D01*
X133793Y60807D01*
X134055Y60866D01*
X134318Y60807D01*
X134547Y60571D01*
X134744Y60217D01*
X134875Y59803D01*
X134941Y59331D01*
Y58858D01*
X134875Y58386D01*
X134744Y57972D01*
X134547Y57618D01*
X134318Y57382D01*
X134055Y57323D01*
G01X134318Y58268D02*
X134711Y57323D01*
G01X136614D02*
X136844Y57382D01*
X137106Y57559D01*
X137270Y57854D01*
X137336Y58268D01*
X137270Y58681D01*
X137074Y59035D01*
X136778Y59213D01*
X136450D01*
X136253Y59331D01*
X136089Y59626D01*
X136024Y60039D01*
X136122Y60453D01*
X136352Y60748D01*
X136614Y60866D01*
X136877Y60748D01*
X137106Y60453D01*
X137205Y60039D01*
X137139Y59626D01*
X136975Y59331D01*
X136778Y59213D01*
X136450D01*
X136155Y59035D01*
X135958Y58681D01*
X135893Y58268D01*
X135958Y57854D01*
X136122Y57559D01*
X136385Y57382D01*
X136614Y57323D01*
G01X145472Y133740D02*
X145210Y133799D01*
X144980Y134035D01*
X144783Y134390D01*
X144652Y134803D01*
X144587Y135276D01*
Y135748D01*
X144652Y136220D01*
X144783Y136634D01*
X144980Y136988D01*
X145210Y137224D01*
X145472Y137283D01*
X145735Y137224D01*
X145965Y136988D01*
X146161Y136634D01*
X146293Y136220D01*
X146358Y135748D01*
Y135276D01*
X146293Y134803D01*
X146161Y134390D01*
X145965Y134035D01*
X145735Y133799D01*
X145472Y133740D01*
G01X145735Y134685D02*
X146129Y133740D01*
G01X147474Y134154D02*
X147704Y133858D01*
X147966Y133740D01*
X148228Y133858D01*
X148458Y134213D01*
X148622Y134744D01*
X148688Y135276D01*
Y135925D01*
X148622Y136457D01*
X148458Y136929D01*
X148261Y137165D01*
X148031Y137283D01*
X147769Y137165D01*
X147572Y136929D01*
X147441Y136575D01*
X147375Y136102D01*
X147441Y135689D01*
X147605Y135276D01*
X147802Y135039D01*
X148031Y134980D01*
X148294Y135098D01*
X148491Y135394D01*
X148688Y135925D01*
G01X131115Y146535D02*
X131280Y146181D01*
X131476Y145945D01*
X131706Y145827D01*
X131969Y145945D01*
X132165Y146181D01*
X132362Y146535D01*
X132428Y147008D01*
Y149370D01*
G01X134724Y145827D02*
Y149370D01*
X133511Y146831D01*
X135151D01*
G54D12*
G01X29819Y9506D02*
Y24506D01*
G01X37819Y9506D02*
X29819D01*
G01X9350Y61648D02*
Y27148D01*
G01D02*
X24350D01*
G01D02*
Y61648D01*
G01X29819Y24506D02*
X37819D01*
G01X36467Y44759D02*
Y28759D01*
G01D02*
X28967D01*
G01D02*
Y44759D01*
G01D02*
X36467D01*
G01X9114Y99011D02*
Y64511D01*
G01D02*
X24114D01*
G01D02*
Y99011D01*
G01X24350Y61648D02*
X9350D01*
G01X35128Y81413D02*
Y65413D01*
G01D02*
X27628D01*
G01D02*
Y81413D01*
G01X24114Y99011D02*
X9114D01*
G01X26767Y102470D02*
X10767D01*
G01D02*
Y109970D01*
G01D02*
X26767D01*
G01D02*
Y102470D01*
G01X27628Y81413D02*
X35128D01*
G01X10305Y115635D02*
Y131635D01*
G01D02*
X17805D01*
G01D02*
Y115635D01*
G01D02*
X10305D01*
G01X43763Y20531D02*
Y5531D01*
G01D02*
X78263D01*
G01X37819Y24506D02*
Y9506D01*
G01X78263Y20531D02*
X43763D01*
G01X64498Y44759D02*
Y28759D01*
G01D02*
X56998D01*
G01D02*
Y44759D01*
G01D02*
X64498D01*
G01X50482Y45310D02*
Y29310D01*
G01D02*
X42982D01*
G01D02*
Y45310D01*
G01D02*
X50482D01*
G01X54305Y121288D02*
Y105488D01*
G01D02*
X49905D01*
G01D02*
X49055Y104638D01*
G01D02*
X48205Y105488D01*
G01D02*
X43805D01*
G01D02*
Y121288D01*
G01X78972Y140305D02*
X62972D01*
G01D02*
Y147805D01*
G01X71978Y113483D02*
X64478D01*
G01D02*
Y129483D01*
G01D02*
X71978D01*
G01X54226Y141406D02*
Y125606D01*
G01D02*
X49826D01*
G01D02*
X48976Y124756D01*
G01D02*
X48126Y125606D01*
G01D02*
X43726D01*
G01D02*
Y141406D01*
G01X43805Y121288D02*
X54305D01*
G01X62972Y147805D02*
X78972D01*
G01X43726Y141406D02*
X54226D01*
G01X78263Y5531D02*
Y20531D01*
G01X98499Y8848D02*
X82499D01*
G01D02*
Y16348D01*
G01D02*
X98499D01*
G01X91785Y38060D02*
Y22260D01*
G01D02*
X87385D01*
G01D02*
X86535Y21410D01*
G01D02*
X85685Y22260D01*
G01D02*
X81285D01*
G01D02*
Y38060D01*
G01D02*
X91785D01*
G01X90546Y65384D02*
X74546D01*
G01D02*
Y72884D01*
G01D02*
X90546D01*
G01D02*
Y65384D01*
G01X68376Y88627D02*
Y104627D01*
G01D02*
X75876D01*
G01D02*
Y88627D01*
G01D02*
X68376D01*
G01X97963Y88523D02*
X90463D01*
G01D02*
Y104523D01*
G01D02*
X97963D01*
G01X80384Y88548D02*
Y104548D01*
G01D02*
X87884D01*
G01D02*
Y88548D01*
G01D02*
X80384D01*
G01X94848Y148642D02*
Y133642D01*
G01D02*
X129348D01*
G01X84276Y135770D02*
Y120770D01*
G01D02*
X76276D01*
G01D02*
Y135770D01*
G01D02*
X84276D01*
G01X78972Y147805D02*
Y140305D01*
G01X71978Y129483D02*
Y113483D01*
G01X109090Y123297D02*
X93090D01*
G01D02*
Y130797D01*
G01D02*
X109090D01*
G01X129348Y148642D02*
X94848D01*
G01X98499Y16348D02*
Y8848D01*
G01X121737Y11197D02*
Y42197D01*
G01X113735Y33888D02*
X97735D01*
G01D02*
Y41388D01*
G01D02*
X113735D01*
G01D02*
Y33888D01*
G01X121737Y42197D02*
X148137D01*
G01X108278Y110271D02*
Y94271D01*
G01D02*
X100778D01*
G01D02*
Y110271D01*
G01D02*
X108278D01*
G01X97963Y104523D02*
Y88523D01*
G01X148617Y97055D02*
X122217D01*
G01D02*
Y128055D01*
G01X109090Y130797D02*
Y123297D01*
G01X148137Y42197D02*
Y11197D01*
G01X148617Y128055D02*
Y97055D01*
G01X129348Y133642D02*
Y148642D01*
M02*
