G04 ================== begin FILE IDENTIFICATION RECORD ==================*
G04 Layout Name:  LAYOUT.brd*
G04 Film Name:    TOP*
G04 File Format:  Gerber RS274X*
G04 File Origin:  Cadence Allegro 16.6-2015-S059*
G04 Origin Date:  Sun Dec 14 23:50:57 2025*
G04 *
G04 Layer:  ETCH/TOP*
G04 Layer:  PIN/TOP*
G04 Layer:  VIA CLASS/TOP*
G04 *
G04 Offset:    (0.0000 0.0000)*
G04 Mirror:    No*
G04 Mode:      Positive*
G04 Rotation:  0*
G04 FullContactRelief:  No*
G04 UndefLineWidth:     0.1000*
G04 ================== end FILE IDENTIFICATION RECORD ====================*
%FSLAX25Y25*MOIN*%
%IR0*IPPOS*OFA0.00000B0.00000*MIA0B0*SFA1.00000B1.00000*%
%ADD15C,.031496*%
%ADD17R,.036X.05*%
%ADD14R,.05X.036*%
%ADD11C,.03937*%
%ADD10R,.048X.04*%
%ADD13R,.05X.05*%
%ADD12R,.12X.076*%
%ADD18R,.076X.048*%
%ADD16R,.076X.12*%
%ADD20R,.056X.072*%
%ADD19R,.22X.23*%
%ADD21C,.015748*%
%ADD22C,.017717*%
%ADD23C,.025591*%
%ADD28C,.078756*%
%ADD26R,.060016X.060016*%
%ADD27R,.130016X.086016*%
%ADD25R,.058016X.050016*%
%ADD24R,.086016X.130016*%
G75*
%LPD*%
G75*
G36*
G01X121154Y51909D02*
G03X116711Y49699I-1508J-2539D01*
G01X116703Y49630D01*
X115373Y48300D01*
Y23786D01*
X120479Y18680D01*
X122558D01*
Y8761D01*
X112200D01*
Y33759D01*
X113814D01*
Y41517D01*
X106057D01*
Y33759D01*
X107671D01*
Y6882D01*
X109107Y5446D01*
G02X108824Y4764I-283J-283D01*
G01X4764D01*
Y152717D01*
X152717D01*
Y73026D01*
G02X152034Y72744I-400J0D01*
G01X149836Y74942D01*
X149127D01*
X145132Y78937D01*
X146682Y80487D01*
Y84076D01*
X148596D01*
Y94034D01*
X140239D01*
Y84076D01*
X142153D01*
Y82363D01*
X141670Y81880D01*
X141600Y81872D01*
G03X139621Y77094I329J-2935D01*
G01X139665Y77040D01*
Y76174D01*
X123672Y60182D01*
Y55176D01*
X121758D01*
Y52253D01*
G02X121154Y51909I-400J0D01*
G37*
%LPC*%
G75*
G36*
G01X35257Y73734D02*
X27499D01*
Y81491D01*
X27744D01*
G03X27885Y81833I0J200D01*
G01X25039Y84679D01*
Y89573D01*
X25462Y89996D01*
Y98267D01*
X24070D01*
X20801Y101536D01*
Y102342D01*
X19088D01*
Y110099D01*
X26846D01*
Y102599D01*
X27271D01*
X29794Y100076D01*
Y97987D01*
X36172D01*
Y93887D01*
X44272D01*
Y92875D01*
X45078D01*
X47757Y90196D01*
Y84575D01*
X39047Y75865D01*
X36481D01*
X36063Y75446D01*
X35257D01*
Y73734D01*
G37*
G36*
G01X81615Y10432D02*
X81181Y10865D01*
X77991D01*
Y5653D01*
X67634D01*
Y20410D01*
X77991D01*
Y15198D01*
X82420D01*
Y16477D01*
X90178D01*
Y8720D01*
X82420D01*
Y10432D01*
X81615D01*
G37*
G36*
G01X103702Y13748D02*
X100858Y10905D01*
X98578D01*
Y8720D01*
X90820D01*
Y16477D01*
X98578D01*
Y15237D01*
X99063D01*
X99369Y15543D01*
Y33759D01*
X97657D01*
Y41517D01*
X105414D01*
Y33759D01*
X103702D01*
Y13748D01*
G37*
G36*
G01X35985Y28680D02*
Y24284D01*
X37598D01*
Y17527D01*
X30040D01*
Y24284D01*
X31653D01*
Y26772D01*
X30550Y27874D01*
Y28680D01*
X28838D01*
Y36438D01*
X36595D01*
Y28680D01*
X35985D01*
G37*
G36*
G01X13892Y98544D02*
X12499Y99937D01*
Y103220D01*
X11566D01*
Y109221D01*
X17568D01*
Y103220D01*
X16635D01*
Y101650D01*
X18682Y99603D01*
Y97861D01*
X23115D01*
Y89260D01*
X10113D01*
Y97861D01*
X13609D01*
G03X13892Y98544I0J400D01*
G37*
G36*
G01X76497Y127749D02*
X84054D01*
Y126536D01*
X85402D01*
X88276Y129410D01*
X93011D01*
Y130926D01*
X98033D01*
Y133763D01*
X95119D01*
Y138562D01*
X90952D01*
X87723Y141791D01*
X79050D01*
Y140176D01*
X77796D01*
Y137546D01*
X72474Y132224D01*
X71617D01*
X71539Y132146D01*
X70069D01*
X67961Y130039D01*
X62257D01*
X59560Y127342D01*
X54155D01*
Y125828D01*
X43798D01*
Y127342D01*
X42852D01*
X39837Y130357D01*
G03X39154Y130074I-283J-283D01*
G01Y124549D01*
X31397D01*
Y129133D01*
X26817D01*
X24295Y126611D01*
G03X24578Y125928I283J-283D01*
G01X30176D01*
Y121327D01*
X29145D01*
Y115080D01*
X36209D01*
X38938Y112351D01*
Y108965D01*
X42363Y105540D01*
Y101209D01*
X43394D01*
Y100276D01*
X59595D01*
X62324Y97548D01*
Y94320D01*
X63355D01*
Y89718D01*
X57354D01*
Y94320D01*
X58385D01*
Y95917D01*
X57964Y96338D01*
X40180D01*
X39909Y96608D01*
X37393D01*
Y101209D01*
X38424D01*
Y103909D01*
X34999Y107334D01*
Y110720D01*
X34578Y111141D01*
X27294D01*
X25206Y113229D01*
Y121327D01*
X24175D01*
Y125525D01*
G03X23492Y125808I-400J0D01*
G01X17934Y120250D01*
Y115556D01*
X10176D01*
Y123313D01*
X14870D01*
X15172Y123615D01*
G03X15030Y123956I-141J141D01*
G01X10176D01*
Y131713D01*
X17934D01*
Y131513D01*
G03X18275Y131372I200J0D01*
G01X23519Y136615D01*
X39985D01*
X43115Y133485D01*
G03X43798Y133767I283J283D01*
G01Y141285D01*
X54155D01*
Y139672D01*
X56698D01*
X58457Y137913D01*
X58533Y137908D01*
G02X61300Y134967I-186J-2948D01*
G03X61700Y134568I400J1D01*
G01X62292D01*
G03X62667Y135108I0J400D01*
G02X64471Y138934I2767J1034D01*
G01X64606Y138981D01*
Y140176D01*
X62893D01*
Y147934D01*
X70650D01*
Y140176D01*
X68938D01*
Y136675D01*
X69662D01*
X69740Y136753D01*
X70597D01*
X73267Y139422D01*
Y140176D01*
X71293D01*
Y147934D01*
X79050D01*
Y146320D01*
X89600D01*
X92828Y143091D01*
X93859D01*
X94174Y143406D01*
X95119D01*
Y148520D01*
X105476D01*
Y133763D01*
X102562D01*
Y132978D01*
X104614Y130926D01*
X109169D01*
Y129312D01*
X111257D01*
X112926Y127644D01*
G03X113572Y127761I283J283D01*
G02X118156Y128800I2687J-1225D01*
G01X120807D01*
X121241Y128367D01*
X123039D01*
Y130934D01*
X147796D01*
Y105176D01*
X123039D01*
Y123838D01*
X119364D01*
X118931Y124271D01*
X118706D01*
G03X118565Y123930I0J-200D01*
G01X119942Y122552D01*
Y113419D01*
X121950Y111410D01*
Y94034D01*
X130596D01*
Y84076D01*
X121910D01*
Y77526D01*
G02X121935Y73764I-2265J-1896D01*
G03X122245Y73111I310J-253D01*
G01X128196D01*
X128226Y73140D01*
X128239Y73293D01*
G02X131368Y70084I2942J-262D01*
G01X131293Y70079D01*
X130627Y69413D01*
G02X130586Y69373I-1530J1535D01*
G01X129992Y68779D01*
X129151D01*
G02X129038I-57J2166D01*
G01X123456D01*
X121103Y66426D01*
Y55993D01*
X118259Y53149D01*
X97685D01*
X92716Y58119D01*
Y70425D01*
X95727Y73436D01*
X98351D01*
Y75491D01*
X94251D01*
Y77204D01*
X91488D01*
X88977Y74693D01*
Y73013D01*
X90625D01*
Y65255D01*
X88913D01*
Y58322D01*
X88893Y58302D01*
Y50178D01*
X92993D01*
Y47993D01*
X93929D01*
X96772Y45149D01*
Y26937D01*
X93929Y24094D01*
X91714D01*
Y22481D01*
X81357D01*
Y31895D01*
X77526D01*
X76792Y31161D01*
Y25322D01*
X73537Y22066D01*
X61057D01*
X58483Y24640D01*
Y28680D01*
X56869D01*
Y30294D01*
X50611D01*
Y29231D01*
X42854D01*
Y30846D01*
X40282D01*
X37184Y33944D01*
Y38156D01*
X36937Y38404D01*
G03X36595Y38263I-141J-141D01*
G01Y37080D01*
X28838D01*
Y44838D01*
X30452D01*
Y53471D01*
X30007Y53917D01*
X24229D01*
Y51020D01*
X9472D01*
Y61377D01*
X24229D01*
Y58446D01*
X31883D01*
X33254Y57075D01*
G03X33936Y57358I283J283D01*
G01Y62196D01*
X36780Y65040D01*
X42654D01*
Y66270D01*
X43543D01*
Y69401D01*
X50088Y75947D01*
Y84740D01*
X48376D01*
Y91098D01*
X56133D01*
Y86998D01*
X64233D01*
Y85985D01*
X68788D01*
X69094Y86291D01*
Y88548D01*
X68247D01*
Y96306D01*
X76062D01*
Y99952D01*
X78906Y102796D01*
X80255D01*
Y104627D01*
X88013D01*
Y96869D01*
X80394D01*
Y96227D01*
X88013D01*
Y88469D01*
X86398D01*
Y86817D01*
G02X81869I-2265J-1896D01*
G01Y88469D01*
X80255D01*
Y91999D01*
G03X79572Y92282I-400J0D01*
G01X77551Y90261D01*
X76005D01*
Y88548D01*
X73426D01*
Y84496D01*
X70582Y81653D01*
X64233D01*
Y80640D01*
X56476D01*
Y84740D01*
X54420D01*
Y74152D01*
X52514Y72246D01*
G03X52635Y71598I283J-283D01*
G02X54385Y69084I-1197J-2700D01*
G01X54390Y69009D01*
X58605Y64794D01*
X61118D01*
Y66506D01*
X61968D01*
Y68456D01*
X64811Y71300D01*
X74468D01*
Y73013D01*
X82225D01*
Y65255D01*
X80513D01*
Y62725D01*
X78977Y61189D01*
Y50178D01*
X82535D01*
Y58278D01*
X83548D01*
Y59084D01*
X84580Y60116D01*
Y65255D01*
X82868D01*
Y73013D01*
X84580D01*
Y73819D01*
X84645Y73883D01*
Y76488D01*
X89693Y81536D01*
X94251D01*
Y83249D01*
X95264D01*
Y84421D01*
X92046Y87638D01*
Y88444D01*
X90334D01*
Y96202D01*
X98091D01*
Y94489D01*
X100189D01*
X100307Y94370D01*
G03X100649Y94511I141J141D01*
G01Y95905D01*
X99755D01*
X98433Y97227D01*
G03X98091Y97085I-141J-141D01*
G01Y96844D01*
X90334D01*
Y104602D01*
X98091D01*
Y102889D01*
X98897D01*
X99966Y101820D01*
G03X100618Y101950I283J283D01*
G01X108621D01*
Y102592D01*
X100649D01*
Y110350D01*
X102361D01*
Y110792D01*
X94233D01*
Y106692D01*
X86476D01*
Y107440D01*
X75827D01*
G02Y111772I-2008J2166D01*
G01X85405D01*
X85670Y112037D01*
X86476D01*
Y113050D01*
X94576D01*
Y114892D01*
X86476D01*
Y115826D01*
X74615D01*
X71771Y118670D01*
Y121805D01*
X64350D01*
Y123517D01*
X63234D01*
X61536Y121819D01*
Y119693D01*
X60376Y118533D01*
G03X60528Y117872I283J-283D01*
G02X61733Y113071I-961J-2793D01*
G01Y110874D01*
X57669Y106810D01*
X54234D01*
Y105709D01*
X43876D01*
Y115046D01*
X40481D01*
X39178Y116349D01*
X31397D01*
Y122706D01*
X39154D01*
Y121694D01*
X39960D01*
X42275Y119379D01*
X42895D01*
X43070Y119554D01*
X43876D01*
Y121167D01*
X54234D01*
Y119554D01*
X55196D01*
X56055Y120413D01*
X56130D01*
X57204Y121488D01*
Y123614D01*
X61440Y127850D01*
X64350D01*
Y129562D01*
X72107D01*
Y127850D01*
X73259D01*
X75814Y125295D01*
G03X76497Y125578I283J283D01*
G01Y127749D01*
G37*
G54D28*
X137795Y137795D03*
X19685Y19685D03*
G54D26*
X72126Y100827D03*
X68228Y117283D03*
X31378Y69213D03*
G54D27*
X16614Y69961D03*
X16850Y32598D03*
G54D25*
X80276Y132270D03*
X33819Y13006D03*
G54D24*
X123898Y141142D03*
X49213Y13031D03*
%LPD*%
G75*
G36*
G01X43424Y87530D02*
Y86370D01*
X37252Y80198D01*
X35257D01*
Y81491D01*
X34629D01*
G02X34346Y82174I0J400D01*
G01X34967Y82794D01*
X38850D01*
X41694Y85638D01*
Y87530D01*
X43424D01*
G37*
G36*
G01X114728Y57481D02*
G02X114444Y58164I0J400D01*
G01X115802Y59522D01*
Y83169D01*
X116660D01*
X117381Y82448D01*
Y77526D01*
G03X120251Y72739I2265J-1896D01*
G02X120615Y72065I82J-392D01*
G01X116771Y68220D01*
Y57787D01*
X116465Y57481D01*
X114728D01*
G37*
G54D10*
X33819Y20906D03*
Y13006D03*
X80276Y124370D03*
Y132270D03*
G54D20*
X125937Y50197D03*
X126417Y89055D03*
X143937Y50197D03*
X144417Y89055D03*
G54D11*
X19685Y19685D03*
X137795Y137795D03*
G54D21*
G01X33819Y20906D02*
Y27669D01*
X32717Y28772D01*
Y32559D01*
G01X45832Y62391D02*
X45350Y62874D01*
X37677D01*
X36102Y61299D01*
Y55866D01*
X37677Y54291D01*
X41732D01*
G01X31378Y77613D02*
X35165D01*
X35584Y78031D01*
X38150D01*
X45591Y85472D01*
Y89299D01*
X44181Y90709D01*
X40394D01*
G01Y98909D02*
Y104724D01*
X36969Y108150D01*
Y111535D01*
X35394Y113110D01*
X28110D01*
X27176Y114045D01*
Y123628D01*
G01X32294Y94809D02*
Y91337D01*
X30945Y89988D01*
Y87126D01*
G01X40394Y90709D02*
X39528Y89843D01*
Y86535D01*
X37953Y84961D01*
X34069D01*
X32494Y83386D01*
X29395D01*
X27205Y85576D01*
Y88676D01*
X27628Y89099D01*
Y99178D01*
X26374Y100433D01*
X24967D01*
X22967Y102433D01*
Y106220D01*
G01X49055Y117388D02*
X43968D01*
X43792Y117213D01*
X41378D01*
X39063Y119528D01*
X35276D01*
G01Y127728D02*
X35236Y127767D01*
Y129724D01*
X33661Y131299D01*
X25920D01*
X14055Y119435D01*
G01X60748Y40959D02*
X67613D01*
X68397Y41743D01*
Y54528D01*
G01X49932Y54291D02*
Y49843D01*
X51507Y48268D01*
X53150D01*
X54055Y47362D01*
Y45813D01*
X54233Y45635D01*
Y42420D01*
X52658Y40846D01*
X47397D01*
X46732Y41510D01*
G01X57795Y47362D02*
X59819Y49386D01*
Y49583D01*
X60197Y49961D01*
Y54528D01*
G01X41732Y54291D02*
Y48937D01*
X43307Y47362D01*
X44173D01*
G01X45832Y62391D02*
Y66179D01*
X45709Y66302D01*
Y68504D01*
X52254Y75050D01*
Y87919D01*
G01X78346Y69134D02*
X65709D01*
X64134Y67559D01*
Y62791D01*
X64297Y62628D01*
G01X51438Y68898D02*
X57708Y62628D01*
X64297D01*
G01X59567Y115079D02*
Y111772D01*
X56772Y108976D01*
X49567D01*
X49055Y109488D01*
G01X60354Y83819D02*
X69685D01*
X71260Y85394D01*
Y91561D01*
X72126Y92427D01*
G01X60354Y92019D02*
Y96732D01*
X58780Y98307D01*
X40995D01*
X40394Y98909D01*
G01X48976Y137506D02*
X55801D01*
X58346Y134961D01*
G01X66772Y144055D02*
Y137480D01*
X65433Y136142D01*
G01X49055Y117388D02*
X56093D01*
X56952Y118247D01*
X57027D01*
X59370Y120591D01*
Y122717D01*
X62337Y125683D01*
X68228D01*
G01X101535Y37638D02*
Y14646D01*
X99961Y13071D01*
X95172D01*
X94699Y12598D01*
G01X72813Y13031D02*
X82079D01*
X82512Y12598D01*
X86299D01*
G01X89814Y46299D02*
X90287Y45827D01*
X93031D01*
X94606Y44252D01*
Y27835D01*
X93031Y26260D01*
X86535D01*
G01X78346Y69134D02*
Y63622D01*
X76811Y62087D01*
Y47874D01*
X78386Y46299D01*
X81614D01*
G01X86746Y69134D02*
Y59219D01*
X85714Y58187D01*
Y54399D01*
G01X86746Y69134D02*
Y72921D01*
X86811Y72986D01*
Y75591D01*
X90591Y79370D01*
X97430D01*
G01D02*
Y85318D01*
X94213Y88535D01*
Y92323D01*
G01X131181Y73031D02*
X129094Y70945D01*
X122559D01*
X118937Y67323D01*
Y56890D01*
X117362Y55315D01*
X98583D01*
X94882Y59016D01*
Y69528D01*
X96624Y71270D01*
X101530D01*
G01X84134Y100748D02*
X84016Y100630D01*
X79803D01*
X78228Y99055D01*
Y94002D01*
X76654Y92427D01*
X72126D01*
G01X73819Y109606D02*
X86302D01*
X86567Y109871D01*
X90354D01*
G01X94213Y92323D02*
X99291D01*
X100630Y90984D01*
G01X104528Y98071D02*
X100652D01*
X98000Y100723D01*
X94213D01*
G01X90354Y118071D02*
X90276Y117992D01*
X75512D01*
X73937Y119567D01*
Y124109D01*
X72362Y125683D01*
X68228D01*
G01X96890Y127047D02*
X93102D01*
X92906Y127244D01*
X89173D01*
X86299Y124370D01*
X80276D01*
G01X104528Y98071D02*
Y84260D01*
X105630Y83157D01*
Y79370D01*
G01X104528Y106471D02*
X109213D01*
X110787Y104896D01*
Y92224D01*
X110689Y92126D01*
Y86417D01*
X110787Y86319D01*
Y85748D01*
X113636Y82899D01*
Y60419D01*
X112061Y58844D01*
X101614D01*
X101530Y58928D01*
Y71270D01*
G01X117579Y89272D02*
X122113D01*
X122330Y89055D01*
X126417D01*
G01X104528Y106471D02*
Y111772D01*
X102328Y113971D01*
X98454D01*
G01X143937Y50197D02*
Y59252D01*
X139409Y63780D01*
G54D12*
X16850Y32598D03*
X16614Y69961D03*
X16850Y56198D03*
X16614Y93561D03*
G54D22*
G01X32717Y40959D02*
Y54409D01*
X30945Y56181D01*
X16868D01*
X16850Y56198D01*
G01X32717Y40959D02*
X32809Y40866D01*
X37677D01*
X39449Y39094D01*
Y34882D01*
X41220Y33110D01*
X46732D01*
G01X14567Y106220D02*
Y100794D01*
X16614Y98746D01*
Y93561D01*
G01X48976Y129606D02*
X43791D01*
X39046Y134350D01*
X24457D01*
X17941Y127835D01*
X14055D01*
G01X60748Y32559D02*
Y25578D01*
X61995Y24331D01*
X72598D01*
X74528Y26260D01*
Y32099D01*
X76588Y34160D01*
X86535D01*
G01X60748Y32559D02*
X51169D01*
X50618Y33110D01*
X46732D01*
G01X75172Y144055D02*
X75531Y143695D01*
Y138484D01*
X71535Y134488D01*
X70678D01*
X70600Y134410D01*
X69130D01*
X67023Y132303D01*
X61319D01*
X58622Y129606D01*
X48976D01*
G01X86535Y34160D02*
Y40472D01*
G01X84134Y92348D02*
Y84921D01*
G01X100298Y141142D02*
X95112D01*
X94797Y140827D01*
X91890D01*
X88661Y144055D01*
X75172D01*
G01X141929Y78937D02*
X148189Y72677D01*
X148898D01*
X150669Y70906D01*
Y8268D01*
X148898Y6496D01*
X111260D01*
X109935Y7820D01*
Y37638D01*
G01X119646Y49370D02*
X117638Y47362D01*
Y24724D01*
X121417Y20945D01*
X134685D01*
X134937Y21197D01*
G01X125937Y50197D02*
Y59244D01*
X141929Y75236D01*
Y78937D01*
G01X105290Y127047D02*
X110319D01*
X114670Y122697D01*
X116594D01*
X117677Y121614D01*
Y112480D01*
X119686Y110472D01*
Y94684D01*
X118112Y93110D01*
X115989D01*
X113740Y90862D01*
Y87681D01*
X115989Y85433D01*
X117598D01*
X119646Y83386D01*
Y75630D01*
G01X105290Y127047D02*
X100298Y132039D01*
Y141142D01*
G01X116260Y126535D02*
X119869D01*
X120302Y126102D01*
X127370D01*
X135417Y118055D01*
G01X141929Y78937D02*
X144417Y81425D01*
Y89055D01*
G54D13*
X32717Y32559D03*
Y40959D03*
X31378Y69213D03*
Y77613D03*
X14567Y106220D03*
X22967D03*
X14055Y127835D03*
Y119435D03*
X60748Y32559D03*
Y40959D03*
X46732Y33110D03*
Y41510D03*
X68228Y117283D03*
Y125683D03*
X66772Y144055D03*
X86299Y12598D03*
X94699D03*
X78346Y69134D03*
X86746D03*
X72126Y100827D03*
Y92427D03*
X94213Y92323D03*
Y100723D03*
X84134Y100748D03*
Y92348D03*
X96890Y127047D03*
X75172Y144055D03*
X101535Y37638D03*
X109935D03*
X104528Y98071D03*
Y106471D03*
X105290Y127047D03*
G54D23*
G01X33819Y10305D02*
Y13006D01*
G01D02*
Y15706D01*
G01X30718Y13006D02*
X33819D01*
G01D02*
X36920D01*
G01X16850Y28098D02*
Y32598D01*
G01D02*
Y37099D01*
G01X10150Y32598D02*
X16850D01*
G01D02*
X23551D01*
G01X16614Y65460D02*
Y69961D01*
G01D02*
Y74461D01*
G01X9913Y69961D02*
X16614D01*
G01D02*
X23315D01*
G01X31378Y66012D02*
Y69213D01*
G01D02*
Y72413D01*
G01X28177Y69213D02*
X31378D01*
G01D02*
X34579D01*
G01X49213Y6331D02*
Y13031D01*
G01D02*
Y19732D01*
G01X44712Y13031D02*
X49213D01*
G01D02*
X53713D01*
G01X65028Y117283D02*
X68228D01*
G01X72126Y97626D02*
Y100827D01*
G01D02*
Y104028D01*
G01X68925Y100827D02*
X72126D01*
G01X80276Y129569D02*
Y132270D01*
G01D02*
Y134971D01*
G01X77175Y132270D02*
X80276D01*
G01D02*
X83376D01*
G01X68228Y114083D02*
Y117283D01*
G01D02*
Y120484D01*
G01X123898Y134441D02*
Y141142D01*
G01D02*
Y147843D01*
G01X119397Y141142D02*
X123898D01*
G01D02*
X128398D01*
G54D14*
X32294Y94809D03*
X27176Y123628D03*
X35276Y119528D03*
Y127728D03*
X40394Y90709D03*
Y98909D03*
X52254Y87919D03*
X60354Y83819D03*
Y92019D03*
X90354Y109871D03*
X98454Y113971D03*
X90354Y118071D03*
G54D15*
X30945Y87126D03*
X44173Y47362D03*
X57795D03*
X51438Y68898D03*
X58346Y134961D03*
X59567Y115079D03*
X65433Y136142D03*
X86535Y40472D03*
X73819Y109606D03*
X84134Y84921D03*
X119646Y49370D03*
Y75630D03*
X117579Y89272D03*
X100630Y90984D03*
X116260Y126535D03*
X139409Y63780D03*
X131181Y73031D03*
X141929Y78937D03*
G54D16*
X49213Y13031D03*
X72813D03*
X100298Y141142D03*
X123898D03*
G54D17*
X64297Y62628D03*
X60197Y54528D03*
X68397D03*
X45832Y62391D03*
X41732Y54291D03*
X49932D03*
X81614Y46299D03*
X89814D03*
X85714Y54399D03*
X97430Y79370D03*
X101530Y71270D03*
X105630Y79370D03*
G54D18*
X49055Y109488D03*
X48976Y129606D03*
Y137506D03*
X49055Y117388D03*
X86535Y26260D03*
Y34160D03*
G54D19*
X134937Y21197D03*
X135417Y118055D03*
M02*
